<svg width="1290" height="825" viewBox="0 0 1290 825" fill="none" xmlns="http://www.w3.org/2000/svg">
<path fill-rule="evenodd" clip-rule="evenodd" d="M860.257 215.119L645.138 0L643.839 1.2998L643.829 1.28991L430 215.119L487.171 272.29H487L487.158 272.448L432 327.606L538.066 433.672L593.224 378.514L593 378.29V272.29H487.685L645.129 114.847L802.796 272.514H697V378.514L697.158 378.356L752.316 433.514L858.382 327.448L803.224 272.29L803 272.514H802.862L860.257 215.119Z" fill="url(#paint0_linear_329_118)"/>
<path d="M80.712 715.814C68.172 715.814 55.404 714.218 42.408 711.026C29.64 708.062 18.924 704.072 10.26 699.056L12.312 651.518H22.23L32.832 675.116C36.024 681.728 39.33 687.2 42.75 691.532C46.17 695.864 50.73 699.17 56.43 701.45C60.306 703.046 63.954 704.186 67.374 704.87C71.022 705.326 75.012 705.554 79.344 705.554C93.252 705.554 104.196 702.02 112.176 694.952C120.384 687.656 124.488 678.08 124.488 666.224C124.488 655.508 121.638 647.072 115.938 640.916C110.466 634.76 101.574 628.832 89.262 623.132L75.24 616.976C56.088 608.54 40.926 598.736 29.754 587.564C18.81 576.392 13.338 561.572 13.338 543.104C13.338 529.424 16.758 517.796 23.598 508.22C30.666 498.416 40.356 490.892 52.668 485.648C64.98 480.404 79.344 477.782 95.76 477.782C107.844 477.782 119.13 479.378 129.618 482.57C140.334 485.762 149.682 490.094 157.662 495.566L155.268 537.974H145.35L132.696 512.324C129.048 504.8 125.514 499.442 122.094 496.25C118.902 492.83 114.912 490.664 110.124 489.752C107.388 489.296 104.994 488.954 102.942 488.726C101.118 488.498 98.61 488.384 95.418 488.384C84.246 488.384 74.556 491.69 66.348 498.302C58.368 504.686 54.378 513.578 54.378 524.978C54.378 535.922 57.456 544.814 63.612 551.654C69.768 558.494 78.66 564.536 90.288 569.78L105.678 576.278C127.794 585.854 143.64 596.114 153.216 607.058C162.792 617.774 167.58 631.568 167.58 648.44C167.58 668.504 159.942 684.806 144.666 697.346C129.618 709.658 108.3 715.814 80.712 715.814ZM284.392 789.002V782.504L291.232 780.794C300.124 778.286 304.57 772.586 304.57 763.694V697.688C297.958 702.932 290.32 707.036 281.656 710C273.22 713.192 263.758 714.788 253.27 714.788C233.662 714.788 217.474 707.492 204.706 692.9C192.166 678.308 185.896 657.218 185.896 629.63C185.896 610.706 189.088 594.632 195.472 581.408C201.856 568.184 210.634 558.152 221.806 551.312C232.978 544.244 245.86 540.71 260.452 540.71C270.256 540.71 279.376 542.192 287.812 545.156C296.248 548.12 303.886 552.224 310.726 557.468L345.952 540.71L350.74 544.13L349.714 590.3V764.72C349.714 773.612 353.704 779.198 361.684 781.478L365.446 782.504V789.002H284.392ZM274.474 698.372C283.822 698.372 293.512 694.838 303.544 687.77V564.65C298.984 562.142 294.424 560.204 289.864 558.836C285.304 557.468 280.402 556.784 275.158 556.784C262.618 556.784 252.7 562.37 245.404 573.542C238.336 584.714 234.802 603.182 234.802 628.946C234.802 654.026 238.222 671.924 245.062 682.64C252.13 693.128 261.934 698.372 274.474 698.372ZM436.451 714.788C427.559 714.788 419.465 713.192 412.169 710C404.873 706.58 399.059 701.108 394.727 693.584C390.623 685.832 388.685 675.686 388.913 663.146L389.939 577.304C389.939 572.288 389.141 568.64 387.545 566.36C385.949 564.08 383.099 562.484 378.995 561.572L374.891 560.204V554.048L433.373 542.762L437.135 546.524L435.425 594.746V672.38C435.425 680.132 437.477 685.832 441.581 689.48C445.913 692.9 451.271 694.61 457.655 694.61C464.267 694.61 470.195 693.698 475.439 691.874C480.911 689.822 486.497 686.858 492.197 682.982L493.223 577.646C493.223 572.402 492.425 568.754 490.829 566.702C489.461 564.65 486.725 563.054 482.621 561.914L478.859 560.888V554.732L535.973 542.762L539.735 546.524L538.709 594.746V684.35C538.709 689.138 539.279 693.014 540.419 695.978C541.787 698.714 544.637 700.766 548.969 702.134L553.415 703.502V710L495.617 713.42L492.539 691.874C484.787 698.486 476.351 703.958 467.231 708.29C458.111 712.622 447.851 714.788 436.451 714.788ZM616.864 714.788C603.868 714.788 592.81 711.14 583.69 703.844C574.798 696.32 570.352 685.604 570.352 671.696C570.352 660.752 575.596 650.72 586.084 641.6C596.8 632.252 613.558 625.412 636.358 621.08C640.234 620.168 644.68 619.37 649.696 618.686C654.94 617.774 660.07 616.862 665.086 615.95V591.668C665.086 576.164 663.148 565.448 659.272 559.52C655.396 553.592 649.24 550.628 640.804 550.628H639.778C634.534 550.628 630.316 552.338 627.124 555.758C624.16 558.95 622.222 564.308 621.31 571.832L620.284 576.278C619.6 585.398 617.206 592.124 613.102 596.456C608.998 600.56 603.868 602.612 597.712 602.612C592.012 602.612 587.224 600.902 583.348 597.482C579.7 593.834 577.876 589.16 577.876 583.46C577.876 574.112 581.068 566.246 587.452 559.862C593.836 553.478 602.272 548.69 612.76 545.498C623.476 542.306 634.99 540.71 647.302 540.71C667.594 540.71 683.098 545.612 693.814 555.416C704.53 565.22 709.888 581.18 709.888 603.296V679.562C709.888 689.366 714.562 694.268 723.91 694.268H731.776L735.196 698.03C731.092 703.274 726.532 707.264 721.516 710C716.5 712.964 709.66 714.446 700.996 714.446C691.192 714.446 683.326 712.166 677.398 707.606C671.698 702.818 667.936 696.548 666.112 688.796C658.816 696.548 651.634 702.818 644.566 707.606C637.498 712.394 628.264 714.788 616.864 714.788ZM636.7 692.9C641.26 692.9 645.592 691.874 649.696 689.822C653.8 687.77 658.93 684.35 665.086 679.562V624.842C659.158 625.754 653.116 626.894 646.96 628.262C637.156 630.542 629.176 634.76 623.02 640.916C617.092 647.072 614.128 655.394 614.128 665.882C614.128 675.002 616.18 681.842 620.284 686.402C624.616 690.734 630.088 692.9 636.7 692.9ZM741.948 710V703.502L747.42 702.134C754.944 699.854 758.706 694.268 758.706 685.376V584.486C758.478 579.698 757.68 576.05 756.312 573.542C754.944 570.806 751.98 568.982 747.42 568.07L741.948 566.702V560.546L797.352 540.71L801.456 544.472L803.85 565.676C812.058 558.38 821.178 552.452 831.21 547.892C841.47 543.104 851.502 540.71 861.306 540.71C876.354 540.71 887.868 544.814 895.848 553.022C904.056 561.23 908.16 573.77 908.16 590.642V685.718C908.16 694.61 912.264 700.196 920.472 702.476L924.234 703.502V710H845.574V703.502L850.704 702.134C858.228 699.626 861.99 694.04 861.99 685.376V583.802C861.99 575.822 860.28 570.008 856.86 566.36C853.44 562.712 847.74 560.888 839.76 560.888C828.588 560.888 816.96 565.79 804.876 575.594V685.718C804.876 694.61 808.866 700.196 816.846 702.476L820.266 703.502V710H741.948ZM1022.12 714.788C1006.62 714.788 992.594 711.482 980.054 704.87C967.514 698.03 957.596 688.226 950.3 675.458C943.232 662.462 939.698 646.73 939.698 628.262C939.698 609.794 943.688 594.062 951.668 581.066C959.648 568.07 970.25 558.152 983.474 551.312C996.926 544.244 1011.63 540.71 1027.59 540.71C1040.59 540.71 1051.65 542.876 1060.77 547.208C1069.89 551.54 1076.84 557.126 1081.63 563.966C1086.42 570.578 1088.81 577.646 1088.81 585.17C1088.81 591.554 1086.87 596.456 1083 599.876C1079.35 603.296 1074.56 605.006 1068.63 605.006C1062.25 605.006 1057 602.726 1052.9 598.166C1049.02 593.606 1046.74 587.792 1046.06 580.724C1045.83 576.164 1045.83 572.288 1046.06 569.096C1046.52 565.904 1046.52 562.826 1046.06 559.862C1045.15 555.986 1043.55 553.364 1041.27 551.996C1039.22 550.628 1036.26 549.944 1032.38 549.944C1018.02 549.944 1006.96 555.758 999.206 567.386C991.682 578.786 987.92 597.368 987.92 623.132C987.92 645.248 992.138 662.234 1000.57 674.09C1009.01 685.946 1022.12 691.874 1039.9 691.874C1050.39 691.874 1059.06 689.936 1065.9 686.06C1072.74 681.956 1079.01 676.142 1084.71 668.618L1090.18 672.722C1084.48 686.402 1075.7 696.89 1063.84 704.186C1052.22 711.254 1038.31 714.788 1022.12 714.788ZM1100.33 710V703.16L1104.77 701.792C1112.98 699.284 1117.09 693.584 1117.09 684.692V508.562C1117.09 503.774 1116.29 500.24 1114.69 497.96C1113.1 495.452 1110.02 493.628 1105.46 492.488L1100.33 491.12V484.622L1158.13 469.916L1163.6 472.994L1162.23 521.216V564.992C1170.21 558.38 1178.87 552.68 1188.22 547.892C1197.8 543.104 1208.06 540.71 1219 540.71C1234.05 540.71 1245.79 544.928 1254.23 553.364C1262.89 561.8 1267.22 574.796 1267.22 592.352V685.034C1267.22 689.594 1268.14 693.242 1269.96 695.978C1271.78 698.714 1274.98 700.766 1279.54 702.134L1282.61 703.16V710H1204.64V703.16L1208.74 701.792C1216.95 699.512 1221.05 693.812 1221.05 684.692V585.854C1221.05 576.506 1219.46 570.008 1216.27 566.36C1213.07 562.712 1207.49 560.888 1199.51 560.888C1194.04 560.888 1188.22 561.914 1182.07 563.966C1176.14 566.018 1169.87 569.438 1163.26 574.226V685.376C1163.26 689.936 1164.17 693.584 1165.99 696.32C1167.82 699.056 1170.89 700.994 1175.23 702.134L1178.3 703.16V710H1100.33Z" fill="white"/>
<defs>
<linearGradient id="paint0_linear_329_118" x1="430" y1="217" x2="860" y2="217" gradientUnits="userSpaceOnUse">
<stop stop-color="#498EF4"/>
<stop offset="1" stop-color="#88ED91"/>
</linearGradient>
</defs>
</svg>
