<svg width="120" height="30" viewBox="0 0 120 30" fill="none" xmlns="http://www.w3.org/2000/svg">
<g clip-path="url(#clip0_306_906)">
<path fill-rule="evenodd" clip-rule="evenodd" d="M30.0001 14.8803L15.0007 -0.119019L14.91 -0.0283346L14.9094 -0.0290212L0 14.8803L3.9863 18.8666H3.97437L11.3653 26.2576V18.8666H4.02218L15 7.88877L25.9936 18.8823H18.6167V26.2732L18.6277 26.2622L22.4736 30.1081L29.8692 22.7126L26.0232 18.8666L26.0075 18.8823H25.9981L30.0001 14.8803ZM11.3805 26.2732L3.98499 18.8776L0.139042 22.7236L7.53457 30.1191L11.3805 26.2732Z" fill="url(#paint0_linear_306_906)"/>
<path d="M42.192 23.374C41.3853 23.374 40.564 23.2713 39.728 23.066C38.9067 22.8753 38.2173 22.6187 37.66 22.296L37.792 19.238H38.43L39.112 20.756C39.3173 21.1813 39.53 21.5333 39.75 21.812C39.97 22.0907 40.2633 22.3033 40.63 22.45C40.8793 22.5527 41.114 22.626 41.334 22.67C41.5687 22.6993 41.8253 22.714 42.104 22.714C42.9987 22.714 43.7027 22.4867 44.216 22.032C44.744 21.5627 45.008 20.9467 45.008 20.184C45.008 19.4947 44.8247 18.952 44.458 18.556C44.106 18.16 43.534 17.7787 42.742 17.412L41.84 17.016C40.608 16.4733 39.6327 15.8427 38.914 15.124C38.21 14.4053 37.858 13.452 37.858 12.264C37.858 11.384 38.078 10.636 38.518 10.02C38.9727 9.38933 39.596 8.90533 40.388 8.568C41.18 8.23067 42.104 8.062 43.16 8.062C43.9373 8.062 44.6633 8.16467 45.338 8.37C46.0273 8.57533 46.6287 8.854 47.142 9.206L46.988 11.934H46.35L45.536 10.284C45.3013 9.8 45.074 9.45533 44.854 9.25C44.6487 9.03 44.392 8.89067 44.084 8.832C43.908 8.80267 43.754 8.78067 43.622 8.766C43.5047 8.75133 43.3433 8.744 43.138 8.744C42.4193 8.744 41.796 8.95667 41.268 9.382C40.7547 9.79267 40.498 10.3647 40.498 11.098C40.498 11.802 40.696 12.374 41.092 12.814C41.488 13.254 42.06 13.6427 42.808 13.98L43.798 14.398C45.2207 15.014 46.24 15.674 46.856 16.378C47.472 17.0673 47.78 17.9547 47.78 19.04C47.78 20.3307 47.2887 21.3793 46.306 22.186C45.338 22.978 43.9667 23.374 42.192 23.374ZM55.2942 28.082V27.664L55.7342 27.554C56.3062 27.3927 56.5922 27.026 56.5922 26.454V22.208C56.1669 22.5453 55.6755 22.8093 55.1182 23C54.5755 23.2053 53.9669 23.308 53.2922 23.308C52.0309 23.308 50.9895 22.8387 50.1682 21.9C49.3615 20.9613 48.9582 19.6047 48.9582 17.83C48.9582 16.6127 49.1635 15.5787 49.5742 14.728C49.9849 13.8773 50.5495 13.232 51.2682 12.792C51.9869 12.3373 52.8155 12.11 53.7542 12.11C54.3849 12.11 54.9715 12.2053 55.5142 12.396C56.0569 12.5867 56.5482 12.8507 56.9882 13.188L59.2542 12.11L59.5622 12.33L59.4962 15.3V26.52C59.4962 27.092 59.7529 27.4513 60.2662 27.598L60.5082 27.664V28.082H55.2942ZM54.6562 22.252C55.2575 22.252 55.8809 22.0247 56.5262 21.57V13.65C56.2329 13.4887 55.9395 13.364 55.6462 13.276C55.3529 13.188 55.0375 13.144 54.7002 13.144C53.8935 13.144 53.2555 13.5033 52.7862 14.222C52.3315 14.9407 52.1042 16.1287 52.1042 17.786C52.1042 19.3993 52.3242 20.5507 52.7642 21.24C53.2189 21.9147 53.8495 22.252 54.6562 22.252ZM65.0758 23.308C64.5038 23.308 63.9831 23.2053 63.5138 23C63.0444 22.78 62.6704 22.428 62.3918 21.944C62.1278 21.4453 62.0031 20.7927 62.0178 19.986L62.0838 14.464C62.0838 14.1413 62.0324 13.9067 61.9298 13.76C61.8271 13.6133 61.6438 13.5107 61.3798 13.452L61.1158 13.364V12.968L64.8778 12.242L65.1198 12.484L65.0098 15.586V20.58C65.0098 21.0787 65.1418 21.4453 65.4058 21.68C65.6844 21.9 66.0291 22.01 66.4398 22.01C66.8651 22.01 67.2464 21.9513 67.5838 21.834C67.9358 21.702 68.2951 21.5113 68.6618 21.262L68.7278 14.486C68.7278 14.1487 68.6764 13.914 68.5738 13.782C68.4858 13.65 68.3098 13.5473 68.0458 13.474L67.8038 13.408V13.012L71.4778 12.242L71.7198 12.484L71.6538 15.586V21.35C71.6538 21.658 71.6904 21.9073 71.7638 22.098C71.8518 22.274 72.0351 22.406 72.3138 22.494L72.5998 22.582V23L68.8818 23.22L68.6838 21.834C68.1851 22.2593 67.6424 22.6113 67.0558 22.89C66.4691 23.1687 65.8091 23.308 65.0758 23.308ZM76.6813 23.308C75.8453 23.308 75.134 23.0733 74.5473 22.604C73.9753 22.12 73.6893 21.4307 73.6893 20.536C73.6893 19.832 74.0266 19.1867 74.7013 18.6C75.3906 17.9987 76.4686 17.5587 77.9353 17.28C78.1846 17.2213 78.4706 17.17 78.7933 17.126C79.1306 17.0673 79.4606 17.0087 79.7833 16.95V15.388C79.7833 14.3907 79.6586 13.7013 79.4093 13.32C79.16 12.9387 78.764 12.748 78.2213 12.748H78.1553C77.818 12.748 77.5466 12.858 77.3413 13.078C77.1506 13.2833 77.026 13.628 76.9673 14.112L76.9013 14.398C76.8573 14.9847 76.7033 15.4173 76.4393 15.696C76.1753 15.96 75.8453 16.092 75.4493 16.092C75.0826 16.092 74.7746 15.982 74.5253 15.762C74.2906 15.5273 74.1733 15.2267 74.1733 14.86C74.1733 14.2587 74.3786 13.7527 74.7893 13.342C75.2 12.9313 75.7426 12.6233 76.4173 12.418C77.1066 12.2127 77.8473 12.11 78.6393 12.11C79.9446 12.11 80.942 12.4253 81.6313 13.056C82.3206 13.6867 82.6653 14.7133 82.6653 16.136V21.042C82.6653 21.6727 82.966 21.988 83.5673 21.988H84.0733L84.2933 22.23C84.0293 22.5673 83.736 22.824 83.4133 23C83.0906 23.1907 82.6506 23.286 82.0933 23.286C81.4626 23.286 80.9566 23.1393 80.5753 22.846C80.2086 22.538 79.9666 22.1347 79.8493 21.636C79.38 22.1347 78.918 22.538 78.4633 22.846C78.0086 23.154 77.4146 23.308 76.6813 23.308ZM77.9573 21.9C78.2506 21.9 78.5293 21.834 78.7933 21.702C79.0573 21.57 79.3873 21.35 79.7833 21.042V17.522C79.402 17.5807 79.0133 17.654 78.6173 17.742C77.9866 17.8887 77.4733 18.16 77.0773 18.556C76.696 18.952 76.5053 19.4873 76.5053 20.162C76.5053 20.7487 76.6373 21.1887 76.9013 21.482C77.18 21.7607 77.532 21.9 77.9573 21.9ZM84.7276 23V22.582L85.0796 22.494C85.5636 22.3473 85.8056 21.988 85.8056 21.416V14.926C85.791 14.618 85.7396 14.3833 85.6516 14.222C85.5636 14.046 85.373 13.9287 85.0796 13.87L84.7276 13.782V13.386L88.2916 12.11L88.5556 12.352L88.7096 13.716C89.2376 13.2467 89.8243 12.8653 90.4696 12.572C91.1296 12.264 91.775 12.11 92.4056 12.11C93.3736 12.11 94.1143 12.374 94.6276 12.902C95.1556 13.43 95.4196 14.2367 95.4196 15.322V21.438C95.4196 22.01 95.6836 22.3693 96.2116 22.516L96.4536 22.582V23H91.3936V22.582L91.7236 22.494C92.2076 22.3327 92.4496 21.9733 92.4496 21.416V14.882C92.4496 14.3687 92.3396 13.9947 92.1196 13.76C91.8996 13.5253 91.533 13.408 91.0196 13.408C90.301 13.408 89.553 13.7233 88.7756 14.354V21.438C88.7756 22.01 89.0323 22.3693 89.5456 22.516L89.7656 22.582V23H84.7276ZM102.75 23.308C101.753 23.308 100.851 23.0953 100.044 22.67C99.2378 22.23 98.5998 21.5993 98.1304 20.778C97.6758 19.942 97.4484 18.93 97.4484 17.742C97.4484 16.554 97.7051 15.542 98.2184 14.706C98.7318 13.87 99.4138 13.232 100.264 12.792C101.13 12.3373 102.076 12.11 103.102 12.11C103.938 12.11 104.65 12.2493 105.236 12.528C105.823 12.8067 106.27 13.166 106.578 13.606C106.886 14.0313 107.04 14.486 107.04 14.97C107.04 15.3807 106.916 15.696 106.666 15.916C106.432 16.136 106.124 16.246 105.742 16.246C105.332 16.246 104.994 16.0993 104.73 15.806C104.481 15.5127 104.334 15.1387 104.29 14.684C104.276 14.3907 104.276 14.1413 104.29 13.936C104.32 13.7307 104.32 13.5327 104.29 13.342C104.232 13.0927 104.129 12.924 103.982 12.836C103.85 12.748 103.66 12.704 103.41 12.704C102.486 12.704 101.775 13.078 101.276 13.826C100.792 14.5593 100.55 15.7547 100.55 17.412C100.55 18.8347 100.822 19.9273 101.364 20.69C101.907 21.4527 102.75 21.834 103.894 21.834C104.569 21.834 105.126 21.7093 105.566 21.46C106.006 21.196 106.41 20.822 106.776 20.338L107.128 20.602C106.762 21.482 106.197 22.1567 105.434 22.626C104.686 23.0807 103.792 23.308 102.75 23.308ZM107.781 23V22.56L108.067 22.472C108.595 22.3107 108.859 21.944 108.859 21.372V10.042C108.859 9.734 108.808 9.50667 108.705 9.36C108.603 9.19867 108.405 9.08133 108.111 9.008L107.781 8.92V8.502L111.499 7.556L111.851 7.754L111.763 10.856V13.672C112.277 13.2467 112.834 12.88 113.435 12.572C114.051 12.264 114.711 12.11 115.415 12.11C116.383 12.11 117.139 12.3813 117.681 12.924C118.239 13.4667 118.517 14.3027 118.517 15.432V21.394C118.517 21.6873 118.576 21.922 118.693 22.098C118.811 22.274 119.016 22.406 119.309 22.494L119.507 22.56V23H114.491V22.56L114.755 22.472C115.283 22.3253 115.547 21.9587 115.547 21.372V15.014C115.547 14.4127 115.445 13.9947 115.239 13.76C115.034 13.5253 114.675 13.408 114.161 13.408C113.809 13.408 113.435 13.474 113.039 13.606C112.658 13.738 112.255 13.958 111.829 14.266V21.416C111.829 21.7093 111.888 21.944 112.005 22.12C112.123 22.296 112.321 22.4207 112.599 22.494L112.797 22.56V23H107.781Z" fill="#F0F0F0"/>
</g>
<defs>
<linearGradient id="paint0_linear_306_906" x1="-2.17677e-07" y1="15.0114" x2="29.9821" y2="15.0114" gradientUnits="userSpaceOnUse">
<stop stop-color="#498EF4"/>
<stop offset="1" stop-color="#88ED91"/>
</linearGradient>
<clipPath id="clip0_306_906">
<rect width="120" height="30" fill="white"/>
</clipPath>
</defs>
</svg>
