<?xml version="1.0" standalone="no"?>
<!DOCTYPE svg PUBLIC "-//W3C//DTD SVG 20010904//EN"
 "http://www.w3.org/TR/2001/REC-SVG-20010904/DTD/svg10.dtd">
<svg version="1.0" xmlns="http://www.w3.org/2000/svg"
 width="400.000000pt" height="150.000000pt" viewBox="0 0 400.000000 150.000000"
 preserveAspectRatio="xMidYMid meet">

<g transform="translate(0.000000,150.000000) scale(0.100000,-0.100000)"
fill="#000000" stroke="none">
<path d="M300 1222 c-37 -18 -46 -38 -36 -78 7 -26 72 -104 88 -104 12 0 6
193 -7 197 -5 1 -26 -5 -45 -15z"/>
<path d="M393 1143 c-9 -3 -13 -26 -13 -67 l0 -62 123 -86 122 -85 3 36 c9
101 -35 190 -115 233 -50 26 -99 39 -120 31z"/>
<path d="M159 1061 c-85 -69 -119 -114 -126 -169 -8 -56 15 -93 127 -202 101
-99 105 -105 147 -245 l18 -60 3 82 c2 58 -1 89 -11 105 -8 13 -18 39 -21 58
-8 42 -18 55 -73 98 -70 55 -66 98 11 132 34 14 48 28 67 66 13 27 32 50 42
52 16 3 17 -19 17 -352 l0 -356 23 0 c12 0 49 7 80 15 232 60 350 242 262 404
-38 68 -113 137 -270 246 -69 49 -146 110 -170 137 -24 26 -45 48 -48 48 -2 0
-38 -27 -78 -59z"/>
<path d="M930 771 c0 -198 3 -272 12 -277 22 -14 164 -17 201 -5 85 28 126 94
127 201 0 91 -29 150 -85 169 -49 17 -103 9 -133 -19 -12 -11 -22 -20 -24 -20
-2 0 -2 49 0 110 l3 110 -50 0 -51 0 0 -269z m211 0 c21 -17 24 -28 24 -89 0
-61 -3 -74 -24 -96 -19 -20 -34 -26 -68 -26 l-43 0 0 75 c0 79 15 125 47 144
26 15 38 13 64 -8z"/>
<path d="M1330 765 l0 -275 45 0 45 0 0 275 0 275 -45 0 -45 0 0 -275z"/>
<path d="M2435 986 c-67 -30 -104 -106 -85 -177 13 -46 30 -61 118 -104 79
-38 102 -67 83 -103 -18 -33 -76 -46 -137 -29 l-52 13 -5 -45 c-3 -25 -3 -48
0 -51 2 -3 44 -6 91 -8 76 -3 93 0 131 20 83 45 114 148 64 217 -10 14 -51 42
-90 61 -39 19 -78 41 -87 49 -22 19 -20 47 5 72 19 19 29 21 84 16 l63 -6 6
35 c4 19 4 39 1 44 -9 15 -155 11 -190 -4z"/>
<path d="M3818 988 l-38 -10 0 -59 0 -59 -35 0 c-33 0 -35 -2 -35 -34 0 -32 3
-35 33 -38 l32 -3 5 -133 c5 -126 6 -135 29 -153 17 -14 39 -19 87 -19 70 0
81 9 70 55 -5 19 -13 25 -34 25 -49 0 -53 9 -55 121 l-2 104 48 3 c46 3 47 4
47 37 0 33 -1 34 -47 37 l-48 3 -3 68 c-2 37 -6 67 -10 66 -4 -1 -24 -6 -44
-11z"/>
<path d="M1976 860 c-137 -41 -160 -303 -32 -361 44 -20 126 -24 189 -10 49
12 50 12 42 53 l-7 35 -49 -13 c-89 -23 -159 9 -159 72 0 24 1 24 115 24 l115
0 0 51 c0 71 -23 114 -74 139 -44 21 -91 24 -140 10z m92 -77 c12 -10 22 -27
24 -38 3 -18 -3 -20 -64 -23 -38 -2 -68 -1 -68 2 0 18 26 56 44 64 30 15 41
14 64 -5z"/>
<path d="M2856 855 c-16 -9 -35 -23 -42 -33 -12 -15 -13 -14 -14 11 0 25 -3
27 -45 27 l-45 0 0 -275 0 -275 50 0 50 0 0 85 0 85 43 0 c107 0 176 54 197
154 13 63 2 142 -26 184 -31 47 -114 65 -168 37z m60 -73 c22 -14 34 -51 34
-102 0 -89 -34 -127 -106 -118 -28 3 -29 6 -32 58 -2 30 0 70 3 89 11 56 66
97 101 73z"/>
<path d="M3207 855 c-83 -29 -121 -89 -121 -190 -1 -117 48 -175 152 -183 118
-8 201 60 210 174 13 160 -96 251 -241 199z m117 -95 c42 -41 27 -162 -23
-190 -78 -41 -149 67 -104 157 30 62 82 75 127 33z"/>
<path d="M3645 858 c-11 -6 -28 -20 -37 -32 l-18 -21 0 28 c0 25 -3 27 -45 27
l-45 0 0 -185 0 -185 49 0 49 0 4 120 c3 106 5 122 24 141 12 11 33 22 48 22
24 2 26 5 26 50 0 51 -13 59 -55 35z"/>
<path d="M1483 701 c6 -167 12 -191 54 -210 55 -25 148 -5 172 36 9 15 10 14
11 -9 0 -26 3 -28 45 -28 l45 0 0 185 0 185 -50 0 -50 0 0 -110 c0 -142 -22
-190 -89 -190 -33 0 -41 32 -41 169 l0 131 -52 0 -51 0 6 -159z"/>
<path d="M181 613 c-30 -57 3 -141 75 -192 l42 -31 -15 53 c-28 96 -43 132
-67 161 -23 30 -23 30 -35 9z"/>
</g>
</svg>
