<?xml version="1.0" encoding="UTF-8"?>
<!DOCTYPE svg PUBLIC "-//W3C//DTD SVG 1.1//EN" "http://www.w3.org/Graphics/SVG/1.1/DTD/svg11.dtd">
<svg xmlns="http://www.w3.org/2000/svg" version="1.1" width="400px" height="150px" style="shape-rendering:geometricPrecision; text-rendering:geometricPrecision; image-rendering:optimizeQuality; fill-rule:evenodd; clip-rule:evenodd" xmlns:xlink="http://www.w3.org/1999/xlink">
<g><path style="opacity:0.874" fill="#fefffe" d="M 32.5,45.5 C 32.5,44.8333 32.1667,44.5 31.5,44.5C 31.1667,43.5 30.5,42.8333 29.5,42.5C 29.5,41.8333 29.1667,41.5 28.5,41.5C 28.5,40.8333 28.1667,40.5 27.5,40.5C 22.2558,31.2198 24.9225,26.2198 35.5,25.5C 35.6663,32.5079 35.4996,39.5079 35,46.5C 34.3292,45.7476 33.4959,45.4142 32.5,45.5 Z"/></g>
<g><path style="opacity:0.923" fill="#fefffe" d="M 57.5,63.5 C 56.7377,61.7376 55.4044,60.7376 53.5,60.5C 53.0269,59.0937 52.0269,58.427 50.5,58.5C 50.0269,57.0937 49.0269,56.427 47.5,56.5C 47.5,55.8333 47.1667,55.5 46.5,55.5C 46.0269,54.0937 45.0269,53.427 43.5,53.5C 43.0269,52.0937 42.0269,51.427 40.5,51.5C 40.0269,50.0937 39.0269,49.427 37.5,49.5C 37.5,44.5 37.5,39.5 37.5,34.5C 57.1438,36.3164 65.3105,46.983 62,66.5C 60.871,64.8588 59.371,63.8588 57.5,63.5 Z"/></g>
<g><path style="opacity:0.94" fill="#fefffe" d="M 27.5,40.5 C 28.1667,40.5 28.5,40.8333 28.5,41.5C 29.1667,41.5 29.5,41.8333 29.5,42.5C 29.5,43.8333 30.1667,44.5 31.5,44.5C 32.1667,44.5 32.5,44.8333 32.5,45.5C 33.5794,47.543 35.246,48.8763 37.5,49.5C 37.9731,50.9063 38.9731,51.573 40.5,51.5C 40.9731,52.9063 41.9731,53.573 43.5,53.5C 43.9731,54.9063 44.9731,55.573 46.5,55.5C 47.1667,55.5 47.5,55.8333 47.5,56.5C 47.9731,57.9063 48.9731,58.573 50.5,58.5C 50.9731,59.9063 51.9731,60.573 53.5,60.5C 54.2623,62.2624 55.5956,63.2624 57.5,63.5C 64.6156,68.787 70.1156,75.4536 74,83.5C 77.4975,97.0095 73.3308,107.51 61.5,115C 53.0878,119.749 44.0878,122.582 34.5,123.5C 34.6666,99.4977 34.5,75.4977 34,51.5C 30.9807,54.2026 28.9807,57.5359 28,61.5C 25.6959,63.0685 23.1959,64.2352 20.5,65C 17.7928,66.8637 16.9595,69.3637 18,72.5C 22.1397,75.728 25.8064,79.3947 29,83.5C 29.7293,88.021 31.0626,92.3543 33,96.5C 33.6667,101.167 33.6667,105.833 33,110.5C 31.984,111.634 31.3173,111.301 31,109.5C 29.6349,104.998 28.1349,100.664 26.5,96.5C 26.539,93.911 25.539,91.911 23.5,90.5C 23.573,88.9731 22.9063,87.9731 21.5,87.5C 21.5,86.8333 21.1667,86.5 20.5,86.5C 15.2243,80.7226 9.72426,75.056 4,69.5C 1.75214,63.655 2.08547,57.9883 5,52.5C 10.2392,46.5901 16.0725,41.4234 22.5,37C 23.1667,36.3333 23.8333,36.3333 24.5,37C 25.1634,38.5185 26.1634,39.6851 27.5,40.5 Z"/></g>
<g><path style="opacity:0.934" fill="#fefffe" d="M 92.5,45.5 C 95.8333,45.5 99.1667,45.5 102.5,45.5C 102.334,52.5079 102.5,59.5079 103,66.5C 105.536,63.2337 108.869,61.9004 113,62.5C 119.809,62.0616 124.142,65.0616 126,71.5C 129.607,97.0522 118.774,106.719 93.5,100.5C 92.5004,82.1788 92.1671,63.8454 92.5,45.5 Z M 107.5,71.5 C 113.658,71.494 116.658,74.6606 116.5,81C 116.406,90.4485 111.906,94.2818 103,92.5C 101.385,84.7049 102.885,77.7049 107.5,71.5 Z"/></g>
<g><path style="opacity:0.875" fill="#fefffe" d="M 131.5,45.5 C 135.167,45.5 138.833,45.5 142.5,45.5C 142.5,64.1667 142.5,82.8333 142.5,101.5C 138.833,101.5 135.167,101.5 131.5,101.5C 131.5,82.8333 131.5,64.1667 131.5,45.5 Z"/></g>
<g><path style="opacity:0.901" fill="#fefffe" d="M 248.5,48.5 C 253.203,48.4372 257.87,48.7705 262.5,49.5C 262.5,52.8333 262.5,56.1667 262.5,59.5C 257.483,57.7858 252.483,57.6191 247.5,59C 244.07,61.3783 243.737,64.045 246.5,67C 252.861,69.2626 258.694,72.4293 264,76.5C 269.41,90.1782 264.91,98.6782 250.5,102C 245.162,102.315 239.828,102.148 234.5,101.5C 234.335,98.4816 234.502,95.4816 235,92.5C 235.308,91.6919 235.808,91.0253 236.5,90.5C 242.643,93.4412 248.476,93.1079 254,89.5C 254.687,87.4325 254.52,85.4325 253.5,83.5C 248.294,80.3972 242.96,77.5639 237.5,75C 229.997,61.5077 233.664,52.6744 248.5,48.5 Z"/></g>
<g><path style="opacity:0.908" fill="#fefffe" d="M 386.5,48.5 C 387.486,52.97 387.819,57.6367 387.5,62.5C 390.5,62.5 393.5,62.5 396.5,62.5C 396.5,65.5 396.5,68.5 396.5,71.5C 393.5,71.5 390.5,71.5 387.5,71.5C 387.334,77.8421 387.5,84.1754 388,90.5C 390.456,92.3213 393.289,92.988 396.5,92.5C 396.5,95.5 396.5,98.5 396.5,101.5C 390.363,103.281 384.529,102.615 379,99.5C 377.956,97.2852 377.29,94.9519 377,92.5C 376.5,85.5079 376.334,78.5079 376.5,71.5C 372.466,71.6721 368.466,72.1721 364.5,73C 362.106,74.9522 360.606,77.4522 360,80.5C 359.5,87.4921 359.334,94.4921 359.5,101.5C 356.167,101.5 352.833,101.5 349.5,101.5C 349.5,88.8333 349.5,76.1667 349.5,63.5C 352.898,63.1796 356.232,63.513 359.5,64.5C 358.674,65.451 358.508,66.451 359,67.5C 360.543,65.6217 362.376,64.1217 364.5,63C 368.486,62.5012 372.486,62.3345 376.5,62.5C 376.335,59.1501 376.502,55.8168 377,52.5C 380.067,50.7838 383.233,49.4505 386.5,48.5 Z"/></g>
<g><path style="opacity:0.894" fill="#fefffe" d="M 197.5,62.5 C 213.916,60.7473 220.916,67.914 218.5,84C 210.812,84.1685 203.145,84.6685 195.5,85.5C 196.203,89.0367 198.203,91.5367 201.5,93C 206.637,93.537 211.637,93.2037 216.5,92C 217.444,94.7191 217.777,97.5525 217.5,100.5C 208.583,103.615 199.916,103.115 191.5,99C 183.249,89.5439 182.416,79.3772 189,68.5C 191.322,65.6047 194.155,63.6047 197.5,62.5 Z M 200.5,70.5 C 205.206,69.8811 207.873,71.8811 208.5,76.5C 204.445,76.8242 200.445,76.4909 196.5,75.5C 197.16,73.1853 198.493,71.5186 200.5,70.5 Z"/></g>
<g><path style="opacity:0.937" fill="#fefffe" d="M 285.5,62.5 C 296.033,60.3354 302.533,64.3354 305,74.5C 307.739,93.5892 299.572,102.589 280.5,101.5C 280.5,107.5 280.5,113.5 280.5,119.5C 277.167,119.5 273.833,119.5 270.5,119.5C 270.5,100.833 270.5,82.1667 270.5,63.5C 273.833,63.5 277.167,63.5 280.5,63.5C 280.351,64.552 280.517,65.552 281,66.5C 282.397,64.9297 283.897,63.5964 285.5,62.5 Z M 285.5,71.5 C 287.792,71.2436 289.959,71.5769 292,72.5C 295.333,78.5 295.333,84.5 292,90.5C 288.748,93.4881 285.082,94.1548 281,92.5C 280.522,87.1321 280.855,81.7988 282,76.5C 282.997,74.6769 284.164,73.0103 285.5,71.5 Z"/></g>
<g><path style="opacity:0.906" fill="#fefffe" d="M 320.5,62.5 C 340.073,60.5726 347.906,69.2393 344,88.5C 340.317,99.1556 332.817,103.656 321.5,102C 314.091,100.923 309.591,96.7564 308,89.5C 305.227,77.0561 309.393,68.0561 320.5,62.5 Z M 323.5,71.5 C 330.516,71.3472 334.183,74.8472 334.5,82C 334.005,89.8456 330.005,93.179 322.5,92C 318.809,87.8645 317.642,83.0312 319,77.5C 319.979,75.0324 321.479,73.0324 323.5,71.5 Z"/></g>
<g><path style="opacity:0.901" fill="#fefffe" d="M 147.5,63.5 C 151.167,63.5 154.833,63.5 158.5,63.5C 158.334,72.8393 158.5,82.1726 159,91.5C 162.338,93.6337 165.338,92.967 168,89.5C 168.862,87.913 169.529,86.2464 170,84.5C 170.5,77.5079 170.666,70.5079 170.5,63.5C 174.167,63.5 177.833,63.5 181.5,63.5C 181.5,76.1667 181.5,88.8333 181.5,101.5C 177.774,101.823 174.107,101.489 170.5,100.5C 171.428,99.2322 171.595,97.8989 171,96.5C 163.917,103.857 156.584,104.191 149,97.5C 147.567,86.2436 147.067,74.9102 147.5,63.5 Z"/></g>
<g><path style="opacity:0.853" fill="#fefffe" d="M 20.5,86.5 C 21.1667,86.5 21.5,86.8333 21.5,87.5C 21.427,89.0269 22.0937,90.0269 23.5,90.5C 23.9925,92.8185 24.9925,94.8185 26.5,96.5C 26.7728,100.823 27.7728,104.99 29.5,109C 29.1667,109.5 28.8333,110 28.5,110.5C 18.1096,105.395 14.6096,97.3953 18,86.5C 18.7697,85.4019 19.603,85.4019 20.5,86.5 Z"/></g>
</svg>
