<svg width="534" height="200" viewBox="0 0 534 200" fill="none" xmlns="http://www.w3.org/2000/svg">
<path d="M39.9996 37.0667C35.0663 39.4667 33.8663 42.1334 35.1996 47.4667C36.133 50.9334 44.7996 61.3334 46.933 61.3334C48.533 61.3334 47.733 35.6 45.9996 35.0667C45.333 34.9334 42.533 35.7334 39.9996 37.0667Z" fill="#E6E6E6"/>
<path d="M52.3998 47.6C51.1998 48 50.6665 51.0666 50.6665 56.5333V64.8L67.0665 76.2666L83.3332 87.6L83.7332 82.8C84.9332 69.3333 79.0665 57.4666 68.3998 51.7333C61.7332 48.2666 55.1998 46.5333 52.3998 47.6Z" fill="#E6E6E6"/>
<path d="M21.1998 58.5333C9.86646 67.7333 5.33313 73.7333 4.3998 81.0667C3.33313 88.5333 6.3998 93.4667 21.3331 108C34.7998 121.2 35.3331 122 40.9331 140.667L43.3331 148.667L43.7331 137.733C43.9998 130 43.5998 125.867 42.2665 123.733C41.1998 122 39.8665 118.533 39.4665 116C38.3998 110.4 37.0665 108.667 29.7331 102.933C20.3998 95.6 20.9331 89.8667 31.1998 85.3333C35.7331 83.4667 37.5998 81.6 40.1331 76.5333C41.8665 72.9333 44.3998 69.8667 45.7331 69.6C47.8665 69.2 47.9998 72.1333 47.9998 116.533V164H51.0665C52.6665 164 57.5998 163.067 61.7331 162C92.6665 154 108.4 129.733 96.6665 108.133C91.5998 99.0667 81.5998 89.8667 60.6665 75.3333C51.4665 68.8 41.1998 60.6667 37.9998 57.0667C34.7998 53.6 31.9998 50.6667 31.5998 50.6667C31.3331 50.6667 26.5331 54.2667 21.1998 58.5333Z" fill="#E6E6E6"/>
<path d="M124 97.2C124 123.6 124.4 133.467 125.6 134.133C128.533 136 147.467 136.4 152.4 134.8C163.733 131.067 169.2 122.267 169.333 108C169.333 95.8667 165.467 88 158 85.4667C151.467 83.2 144.267 84.2667 140.267 88C138.667 89.4667 137.333 90.6667 137.067 90.6667C136.8 90.6667 136.8 84.1334 137.067 76L137.467 61.3334H130.8H124V97.2ZM152.133 97.2C154.933 99.4667 155.333 100.933 155.333 109.067C155.333 117.2 154.933 118.933 152.133 121.867C149.6 124.533 147.6 125.333 143.067 125.333H137.333V115.333C137.333 104.8 139.333 98.6667 143.6 96.1334C147.067 94.1334 148.667 94.4 152.133 97.2Z" fill="#E6E6E6"/>
<path d="M177.333 98V134.667H183.333H189.333V98V61.3333H183.333H177.333V98Z" fill="#E6E6E6"/>
<path d="M324.666 68.5334C315.733 72.5334 310.8 82.6667 313.333 92.1334C315.066 98.2667 317.333 100.267 329.066 106C339.6 111.067 342.666 114.933 340.133 119.733C337.733 124.133 330 125.867 321.866 123.6L314.933 121.867L314.266 127.867C313.866 131.2 313.866 134.267 314.266 134.667C314.533 135.067 320.133 135.467 326.4 135.733C336.533 136.133 338.8 135.733 343.866 133.067C354.933 127.067 359.066 113.333 352.4 104.133C351.066 102.267 345.6 98.5334 340.4 96.0001C335.2 93.4667 330 90.5334 328.8 89.4667C325.866 86.9334 326.133 83.2001 329.466 79.8667C332 77.3334 333.333 77.0667 340.666 77.7334L349.066 78.5334L349.866 73.8667C350.4 71.3334 350.4 68.6667 350 68.0001C348.8 66.0001 329.333 66.5334 324.666 68.5334Z" fill="#E6E6E6"/>
<path d="M509.067 68.2667L504 69.6V77.4667V85.3333H499.333C494.933 85.3333 494.667 85.6 494.667 89.8667C494.667 94.1333 495.067 94.5333 499.067 94.9333L503.333 95.3333L504 113.067C504.667 129.867 504.8 131.067 507.867 133.467C510.133 135.333 513.067 136 519.467 136C528.8 136 530.267 134.8 528.8 128.667C528.133 126.133 527.067 125.333 524.267 125.333C517.733 125.333 517.2 124.133 516.933 109.2L516.667 95.3333L523.067 94.9333C529.2 94.5333 529.333 94.4 529.333 90C529.333 85.6 529.2 85.4667 523.067 85.0667L516.667 84.6667L516.267 75.6C516 70.6667 515.467 66.6667 514.933 66.8C514.4 66.9333 511.733 67.6 509.067 68.2667Z" fill="#E6E6E6"/>
<path d="M263.466 85.3334C245.2 90.8 242.133 125.733 259.2 133.467C265.066 136.133 276 136.667 284.4 134.8C290.933 133.2 291.066 133.2 290 127.733L289.066 123.067L282.533 124.8C270.666 127.867 261.333 123.6 261.333 115.2C261.333 112 261.466 112 276.666 112H292V105.2C292 95.7334 288.933 90 282.133 86.6667C276.266 83.8667 270 83.4667 263.466 85.3334ZM275.733 95.6C277.333 96.9334 278.666 99.2 278.933 100.667C279.333 103.067 278.533 103.333 270.4 103.733C265.333 104 261.333 103.867 261.333 103.467C261.333 101.067 264.8 96 267.2 94.9334C271.2 92.9334 272.666 93.0667 275.733 95.6Z" fill="#E6E6E6"/>
<path d="M380.8 86C378.666 87.2 376.133 89.0666 375.2 90.4C373.6 92.4 373.466 92.2666 373.333 88.9333C373.333 85.6 372.933 85.3333 367.333 85.3333H361.333V122V158.667H368H374.666V147.333V136H380.4C394.666 136 403.866 128.8 406.666 115.467C408.4 107.067 406.933 96.5333 403.2 90.9333C399.066 84.6666 388 82.2666 380.8 86ZM388.8 95.7333C391.733 97.6 393.333 102.533 393.333 109.333C393.333 121.2 388.8 126.267 379.2 125.067C375.466 124.667 375.333 124.267 374.933 117.333C374.666 113.333 374.933 108 375.333 105.467C376.8 98 384.133 92.5333 388.8 95.7333Z" fill="#E6E6E6"/>
<path d="M427.6 86C416.533 89.8666 411.466 97.8666 411.466 111.333C411.333 126.933 417.866 134.667 431.733 135.733C447.466 136.8 458.533 127.733 459.733 112.533C461.466 91.2 446.933 79.0666 427.6 86ZM443.2 98.6666C448.8 104.133 446.8 120.267 440.133 124C429.733 129.467 420.266 115.067 426.266 103.067C430.266 94.8 437.2 93.0666 443.2 98.6666Z" fill="#E6E6E6"/>
<path d="M486 85.6C484.533 86.4 482.267 88.2666 481.067 89.8666L478.667 92.6666V88.9333C478.667 85.6 478.267 85.3333 472.667 85.3333H466.667V110V134.667H473.2H479.733L480.267 118.667C480.667 104.533 480.933 102.4 483.467 99.8666C485.067 98.4 487.867 96.9333 489.867 96.9333C493.067 96.6666 493.333 96.2666 493.333 90.2666C493.333 83.4666 491.6 82.4 486 85.6Z" fill="#E6E6E6"/>
<path d="M197.733 106.533C198.533 128.8 199.333 132 204.933 134.533C212.266 137.867 224.666 135.2 227.866 129.733C229.066 127.733 229.2 127.867 229.333 130.933C229.333 134.4 229.733 134.667 235.333 134.667H241.333V110V85.3333H234.666H228V100C228 118.933 225.066 125.333 216.133 125.333C211.733 125.333 210.666 121.067 210.666 102.8V85.3333H203.733H196.933L197.733 106.533Z" fill="#E6E6E6"/>
<path d="M24.1332 118.267C20.1332 125.867 24.5332 137.067 34.1332 143.867L39.7332 148L37.7332 140.933C33.9999 128.133 31.9999 123.333 28.7999 119.467C25.7332 115.467 25.7332 115.467 24.1332 118.267Z" fill="#E6E6E6"/>
</svg>
