<svg width="500" height="414" viewBox="0 0 500 414" fill="none" xmlns="http://www.w3.org/2000/svg">
<g clip-path="url(#clip0_330_4317)">
<path d="M22.2621 0C10.8301 0 1.20312 9.02527 1.20312 21.059V302.647C1.20312 314.079 10.2284 323.706 22.2621 323.706H453.069C464.501 323.706 474.128 314.681 474.128 302.647V152.828C450.06 152.828 430.806 133.574 430.806 109.507C430.806 85.4392 450.06 66.1853 474.128 66.1853V21.059C474.128 9.62696 465.102 0 453.069 0H22.2621Z" fill="url(#paint0_linear_330_4317)"/>
<path d="M13.8389 15.6439C18.6523 18.0507 22.8642 22.8641 26.4743 30.6861H451.264C452.467 24.0675 456.077 19.254 462.094 15.0423C459.687 12.0338 456.679 10.2288 453.67 10.2288H21.6609C18.6525 10.8304 15.6439 12.6355 13.8389 15.6439Z" fill="url(#paint1_linear_330_4317)"/>
<path d="M2.4069 15.0422C2.4069 15.6439 2.4069 15.6439 2.4069 15.0422ZM437.425 132.371C296.029 208.785 149.218 214.802 2.4069 215.403H1.80518V302.046C1.80518 313.478 10.8304 323.105 22.8641 323.105H453.67C465.102 323.105 474.729 314.08 474.729 302.046V152.828C458.484 152.828 445.247 144.404 437.425 132.371Z" fill="url(#paint2_linear_330_4317)"/>
<path d="M38.5077 291.817C38.5077 291.817 35.4994 291.215 36.101 290.614C36.7027 287.605 37.906 285.8 37.906 284.597C37.906 283.393 40.3127 284.597 40.3127 284.597L42.1179 280.987C42.1179 280.987 39.711 280.385 40.3127 279.182C40.9144 276.775 42.1179 275.572 42.7196 274.97C43.3213 274.368 44.5246 275.572 44.5246 275.572C44.5246 275.572 45.728 274.368 45.728 273.767C47.5331 271.36 49.9398 270.156 50.5414 268.351L51.7449 264.741C51.7449 264.741 49.3382 263.538 49.9399 262.936C51.1433 261.131 51.7447 260.529 52.3464 258.724C52.9481 258.123 54.1514 259.928 54.1514 259.928L55.9568 257.521C55.9568 257.521 54.1516 256.318 54.7533 255.716C55.355 253.911 57.16 252.708 57.7617 250.902C58.3634 250.301 59.5667 252.106 59.5667 252.106C59.5667 252.106 63.177 247.894 64.982 247.292C66.1854 247.292 68.592 249.097 68.592 249.097L72.8039 253.309L77.0157 257.521H79.4222C84.2357 257.521 96.2696 253.911 110.108 248.496C117.93 245.487 126.354 242.479 128.76 241.877C128.76 241.877 131.769 240.674 133.574 240.674C134.176 240.674 135.981 241.276 135.981 241.276L138.387 241.877L135.981 238.267C134.777 235.86 131.769 231.047 129.964 226.835C127.557 222.623 126.354 218.412 124.549 214.801L122.142 215.403L117.93 205.174C105.897 180.505 104.693 173.887 105.295 158.845C105.896 155.235 107.1 152.828 108.905 150.421L106.498 149.819C106.498 149.819 104.092 150.421 104.092 149.218C104.092 143.803 105.295 133.574 105.295 133.574C107.1 115.523 109.507 97.4729 113.718 84.8375L115.523 79.4223L121.54 76.4139L127.557 73.4055L124.549 74.0072C122.744 74.0072 115.523 75.2106 108.905 75.2106L96.2693 76.4139L84.2356 89.651L70.9989 101.685L69.7954 105.896C69.7954 105.896 69.1937 108.905 68.592 110.108C67.9903 111.312 65.5836 113.718 65.5836 113.718C63.7785 115.523 60.7702 117.93 58.9652 119.134L55.3548 120.939H52.9483C49.3382 120.939 47.533 120.337 47.533 118.532C47.533 117.93 49.3379 115.523 51.143 113.718C52.948 111.312 54.7531 109.507 54.1514 109.507C54.1514 109.507 52.3465 110.108 50.5414 111.312C50.5414 111.312 48.1349 113.718 46.9315 113.718C45.7281 113.718 45.1261 111.913 45.1261 110.108C45.1261 108.905 47.5331 108.303 48.7365 107.701C51.7449 105.295 52.9481 103.49 55.3548 99.8796C56.5582 98.0746 58.3632 95.6678 60.1683 95.0661L63.1767 93.2611L70.9989 80.6257C75.2107 74.0072 80.0239 65.5836 82.4307 62.5751C82.4307 62.5751 84.2359 58.3633 86.041 56.5583C87.2444 55.9566 89.651 55.3549 89.651 55.3549L94.4644 54.1516C94.4644 52.3465 93.2612 50.5414 95.0663 50.5414C108.303 47.533 112.515 45.728 123.947 43.3212C133.574 41.5162 142.599 42.1179 142.599 42.1179L146.811 42.7196C152.828 43.9229 161.853 46.3297 166.065 47.533L169.675 48.7364L171.48 45.1263C173.887 40.3128 178.7 35.4994 183.514 33.0926C189.53 30.6859 194.946 29.4825 200.963 31.2876L204.573 32.4909C211.191 36.7027 214.801 42.7196 217.81 49.3381C218.411 56.5583 219.615 61.9735 215.403 65.5836C214.2 66.1852 212.996 66.1853 210.589 67.3886C207.581 68.592 205.776 72.2021 202.768 76.4139C202.768 76.4139 201.564 78.219 200.361 78.8207C199.158 79.4223 198.556 79.4223 197.353 78.8207C194.946 78.8207 193.742 79.4223 193.742 79.4223L190.734 81.2274C188.929 82.4308 186.522 83.0324 185.319 83.0324H183.514C182.31 82.4307 181.107 80.024 181.107 80.024L179.302 77.0156L178.7 78.8207C173.285 93.8628 172.082 111.312 166.667 126.354L173.887 126.955C177.497 127.557 187.124 128.76 194.946 129.964C194.946 129.964 205.175 131.167 209.386 132.371C210.59 132.371 211.191 135.379 211.191 135.379L220.217 137.184C225.03 138.387 232.852 140.193 237.665 141.998L246.089 145.006C246.089 145.006 252.106 143.803 255.114 143.803C258.724 143.803 265.343 146.209 265.343 146.209L265.945 145.006L274.368 148.616C278.58 150.421 287.605 154.633 296.029 158.243C312.876 165.463 324.91 169.675 331.528 171.48L336.342 172.683L349.579 171.48C356.799 170.878 364.621 169.675 367.027 169.073C373.044 167.87 374.849 167.87 377.256 170.277C378.46 171.48 380.265 173.285 379.663 173.887C379.061 174.489 377.858 175.692 376.655 175.692C376.655 175.692 377.858 176.895 377.256 177.497C376.053 178.7 374.85 178.7 373.646 179.302C373.045 179.302 372.443 178.099 372.443 178.099L370.036 179.904C370.638 180.505 371.239 181.107 370.638 181.709C369.434 182.912 368.231 183.514 367.027 184.115C366.426 184.717 366.426 183.514 365.824 182.912L350.782 194.344C350.782 194.344 352.587 195.547 351.985 196.751C350.18 198.556 350.18 198.556 348.977 199.158C348.375 199.158 347.774 197.954 347.172 197.353L344.765 199.158C344.765 199.158 346.57 200.963 345.969 201.564C345.367 202.166 344.164 202.768 342.359 203.971C341.757 204.573 339.952 202.166 339.952 202.166C339.952 202.166 335.138 205.174 333.333 204.573C332.13 203.971 332.13 200.963 330.325 197.954C330.325 197.954 329.121 194.344 327.316 193.141C326.113 191.937 323.706 191.937 323.706 191.937C315.885 190.734 302.647 187.726 294.825 187.124C268.351 185.319 262.936 184.115 253.309 179.302L246.691 175.692L226.835 175.09L206.378 174.489L205.175 176.895H164.26V178.7C164.26 179.904 165.463 184.717 166.667 191.336C166.667 191.336 169.073 202.166 167.87 203.369C166.667 204.573 164.862 205.776 164.862 205.776L167.268 219.615C170.277 239.47 170.878 240.072 170.878 247.292V253.911L169.675 256.318C169.073 257.521 167.87 260.529 166.065 261.733L163.658 264.741L158.243 267.148C155.235 268.351 153.43 269.555 152.226 269.555C151.625 269.555 149.218 270.156 148.616 270.758C148.014 270.758 148.616 271.961 148.014 271.961C146.811 271.961 137.184 272.563 137.184 272.563C131.167 273.165 114.922 273.767 99.8797 274.97L73.4054 276.173L69.7954 278.58C61.9735 283.393 55.355 289.41 51.7449 294.224L47.533 298.436C46.3297 299.037 44.5247 299.639 42.7196 299.639C39.7112 299.639 37.906 298.436 37.906 296.631C37.3043 294.825 38.5077 291.817 38.5077 291.817Z" fill="white"/>
<path d="M1.80518 300.842V302.046C1.80518 313.478 10.8304 323.105 22.8641 323.105H453.67C465.102 323.105 474.729 314.079 474.729 302.046V300.842H1.80518Z" fill="url(#paint3_linear_330_4317)"/>
<path d="M474.128 84.8376C462.696 84.8376 453.67 91.4562 453.67 99.8798C453.67 108.303 462.696 114.922 474.128 114.922C485.56 114.922 494.585 108.303 494.585 99.8798C493.983 91.4562 484.958 84.8376 474.128 84.8376ZM495.788 96.2697C496.992 98.6764 498.195 101.685 498.195 105.295C498.195 116.727 487.365 125.752 474.128 125.752C460.891 125.752 450.662 116.727 450.662 105.295C450.662 103.49 451.263 101.685 451.263 99.8798C450.06 102.888 449.458 105.295 449.458 108.905C449.458 121.54 460.289 132.371 474.128 132.371C487.967 132.371 498.797 122.142 498.797 108.905C499.398 103.49 497.593 99.8798 495.788 96.2697Z" fill="url(#paint4_radial_330_4317)"/>
<path d="M474.128 83.6343C459.687 83.6343 448.255 95.0663 448.255 109.507C448.255 123.947 459.687 135.379 474.128 135.379C488.568 135.379 500 123.947 500 109.507C500 95.0663 487.966 83.6343 474.128 83.6343ZM465.704 86.041C465.704 86.041 470.518 84.8377 474.128 84.8377C477.738 84.8377 486.763 86.6427 490.975 92.0579C498.797 102.888 489.771 109.507 488.568 110.71C488.568 109.507 486.763 102.888 484.958 99.8798C483.755 98.0747 482.551 96.2697 481.348 95.0663C479.542 93.2612 478.339 92.0579 475.933 90.2528C469.314 88.4478 474.729 90.2528 477.136 92.0579C477.136 92.0579 486.763 100.481 487.364 110.71C483.754 113.117 478.941 114.922 474.128 114.922C462.696 114.922 454.272 108.303 454.272 99.8798C456.077 89.6512 462.094 88.4478 462.695 87.2444C463.297 87.2444 464.501 86.6427 465.704 86.041ZM474.128 131.167C451.264 129.964 447.052 110.71 451.263 99.2781C446.45 110.71 456.679 124.549 474.128 125.151C484.356 125.151 487.364 121.54 487.364 121.54C487.364 121.54 487.365 123.947 486.763 125.151C486.763 126.354 486.161 128.159 486.161 128.159C482.551 130.566 481.348 130.566 474.128 131.167Z" fill="url(#paint5_radial_330_4317)"/>
<path d="M488.568 112.515C487.966 110.108 487.966 108.905 487.364 107.1L486.763 104.091C483.754 95.6678 479.543 92.6594 474.128 89.0493C472.322 87.8459 468.712 86.0409 466.907 85.4392C469.314 84.8375 469.916 84.8375 471.119 84.2358C476.534 84.2358 481.347 84.2358 487.364 87.2443C493.983 90.8544 497.593 95.6678 497.593 101.083C497.593 102.888 497.593 104.091 496.991 105.295C496.39 108.303 495.186 110.71 492.78 113.718C492.178 114.922 490.974 114.922 490.373 114.922C488.568 115.523 488.568 113.718 488.568 112.515Z" fill="url(#paint6_linear_330_4317)"/>
<path d="M481.949 97.473C481.949 103.49 477.136 108.905 470.517 108.905C463.899 108.905 459.085 104.092 459.085 97.473C459.085 91.4562 463.899 86.041 470.517 86.041C477.136 86.041 481.949 91.4562 481.949 97.473Z" fill="url(#paint7_radial_330_4317)"/>
<path d="M462.094 101.083C465.704 97.473 471.119 95.0663 480.145 96.2697C477.136 92.6596 474.128 90.2528 469.916 88.4478C462.094 90.2528 458.484 93.8629 456.679 98.6764C457.882 98.6764 459.086 99.2781 462.094 101.083Z" fill="white" stroke="white"/>
<path d="M266.546 356.197C258.123 356.197 252.106 359.206 249.699 365.824C248.496 368.231 248.496 368.833 248.496 373.044C248.496 376.655 249.097 377.858 249.699 379.061C252.106 383.273 255.114 385.078 265.343 388.688C275.572 392.298 277.377 393.502 277.377 397.713C277.377 400.12 276.173 401.925 273.165 403.73C271.36 404.934 270.758 404.934 267.148 404.934C262.334 404.934 259.326 403.73 255.716 400.722C254.512 399.519 252.707 398.917 252.707 398.917C252.106 398.917 246.691 404.332 246.691 404.934C246.691 405.535 250.902 409.146 252.707 410.349C255.114 411.552 257.521 412.756 260.53 413.357C264.14 413.959 271.961 413.959 274.97 412.756C280.385 410.951 283.995 407.942 285.8 403.73C286.402 401.925 287.003 400.722 287.003 397.112C287.003 392.9 287.003 392.298 285.8 390.493C284.597 388.087 282.19 385.68 279.182 383.875C277.978 383.273 273.767 381.468 269.555 380.265C265.343 379.061 261.131 377.256 260.53 376.655C257.521 374.849 256.919 371.239 259.326 368.833C262.335 365.223 271.36 365.223 276.775 369.434C277.978 370.638 279.182 371.239 279.182 371.239C279.783 371.239 285.199 365.824 285.199 365.223C285.199 364.019 281.588 361.011 277.978 359.807C273.766 356.799 271.36 356.197 266.546 356.197ZM392.298 356.197C386.883 356.197 383.875 356.799 379.663 359.206C374.248 362.214 370.036 367.028 367.629 374.85C367.028 377.858 366.426 379.061 366.426 385.078C366.426 392.9 367.028 395.908 369.434 400.722C373.044 407.34 379.061 412.154 386.281 413.357C395.307 415.162 404.934 412.756 410.349 407.34C415.162 402.527 416.366 397.714 416.968 388.087V381.468H394.103V392.298H397.714C401.324 392.298 401.324 392.298 401.324 393.502C401.324 395.908 399.518 398.917 397.112 399.519C395.307 400.12 391.095 400.12 389.29 399.519C387.485 398.917 385.078 395.908 383.875 393.502C382.672 389.892 382.671 385.078 383.273 381.468C384.476 374.248 386.883 370.638 392.298 370.638C394.103 370.638 397.112 371.841 397.714 373.044C398.315 373.646 398.917 374.248 399.519 374.248C400.722 374.248 412.756 369.434 413.357 368.833C413.959 368.231 411.552 364.019 409.145 362.214C405.535 358.002 400.12 356.197 392.298 356.197ZM155.235 357.401V412.756H166.065C174.489 412.756 177.497 412.154 179.302 411.552C191.336 407.942 197.954 398.917 197.954 384.476C197.954 379.061 197.353 374.85 194.946 370.638C191.937 364.621 187.726 360.409 181.107 358.604C178.099 357.401 177.497 357.401 166.667 357.401H155.235ZM110.71 357.401H101.083V412.154C101.083 412.756 102.286 412.756 105.295 412.756H109.507V393.502C109.507 384.476 108.905 374.85 108.905 374.85C108.905 374.85 109.507 374.85 113.718 380.866C116.125 384.476 121.54 393.502 125.752 400.12L134.176 412.756H142.599V357.401H132.972V376.655C132.972 389.29 132.972 395.908 132.37 395.307C132.37 394.705 126.955 386.282 120.337 376.053L110.71 357.401ZM453.67 357.401H437.425L418.171 412.154H435.018L437.425 403.129L453.069 403.73L456.077 412.756L472.924 412.154L453.67 357.401ZM0 357.401V412.756C0.601685 413.357 24.0674 413.357 27.0758 412.756C30.0842 412.154 34.296 410.349 36.1011 408.544C39.1095 405.535 41.5162 399.519 40.9145 394.103C40.3128 389.29 38.5077 385.68 34.8976 383.875C34.296 383.273 33.0927 382.671 33.0927 382.671L34.8976 380.866C37.9061 378.46 38.5078 376.053 38.5078 370.638C38.5078 367.028 37.906 366.426 37.3043 364.019C35.4993 361.011 33.0926 358.604 29.4825 357.401C27.0758 356.799 25.8723 356.799 13.237 356.799H0V357.401ZM81.8292 357.401V373.646C81.8292 382.671 81.8289 391.095 81.2273 392.9C80.0239 400.722 76.4138 404.332 69.1936 403.73C64.3801 403.73 60.7703 401.324 58.9652 396.51C58.3635 394.705 58.3635 393.502 57.7618 375.451V356.799H48.1346V375.451C47.5329 392.9 48.1346 412.756 69.1936 413.357C80.0239 413.357 86.6426 408.544 89.651 398.315C90.2527 396.51 90.2525 392.9 90.2525 376.655V357.401H81.8292ZM341.155 357.401V412.756H357.401V357.401H341.155ZM204.573 357.401V412.154C204.573 412.756 208.785 412.756 223.225 412.756H241.877V403.129H214.2V387.485H229.843V377.858H214.2V365.824H240.674V357.401H204.573ZM296.631 357.401V412.154C296.631 412.756 300.842 412.756 315.283 412.756H333.333V398.315H312.876V357.401H296.631ZM18.0505 365.824C21.059 365.824 23.4657 365.824 24.0674 366.426C27.6775 367.028 30.0842 370.036 29.4825 373.646C29.4825 376.053 27.0757 377.858 25.2706 378.46C24.669 378.46 20.4572 379.061 16.2454 379.061H8.42355V365.824H18.0505ZM164.26 365.824H166.667C170.277 365.824 176.294 366.426 178.099 367.028C184.717 369.434 187.726 375.451 187.726 384.476C187.726 388.688 187.124 391.697 185.921 394.705C184.115 398.917 180.505 401.324 175.692 402.527C173.887 403.129 170.878 403.129 168.472 403.129H164.26V365.824ZM445.247 376.053L449.458 390.493H440.433L445.247 376.053ZM8.42355 386.883H15.6438C25.2708 386.883 27.0757 387.485 28.8808 389.29C33.0926 393.502 31.2875 401.324 25.8724 403.129C24.669 403.129 20.4572 403.73 16.2454 403.73H8.42355V386.883Z" fill="#E6E6E6"/>
</g>
<defs>
<linearGradient id="paint0_linear_330_4317" x1="269.765" y1="176.805" x2="388.093" y2="233.857" gradientUnits="userSpaceOnUse">
<stop stop-color="#CD090D"/>
<stop offset="1" stop-color="#F39272"/>
</linearGradient>
<linearGradient id="paint1_linear_330_4317" x1="238.039" y1="10.8004" x2="238.039" y2="28.6945" gradientUnits="userSpaceOnUse">
<stop stop-color="white"/>
<stop offset="0.3" stop-color="white" stop-opacity="0.498"/>
<stop offset="1" stop-color="white" stop-opacity="0"/>
</linearGradient>
<linearGradient id="paint2_linear_330_4317" x1="2.85812" y1="169.11" x2="298.761" y2="169.11" gradientUnits="userSpaceOnUse">
<stop stop-color="#8E0902"/>
<stop offset="1" stop-color="#E2080E"/>
</linearGradient>
<linearGradient id="paint3_linear_330_4317" x1="237.846" y1="328.67" x2="237.846" y2="300.289" gradientUnits="userSpaceOnUse">
<stop stop-color="#580000" stop-opacity="0.863"/>
<stop offset="0.547" stop-color="#740500" stop-opacity="0.514"/>
<stop offset="0.815" stop-color="#800700" stop-opacity="0.255"/>
<stop offset="1" stop-color="#8C0A00" stop-opacity="0"/>
</linearGradient>
<radialGradient id="paint4_radial_330_4317" cx="0" cy="0" r="1" gradientUnits="userSpaceOnUse" gradientTransform="translate(470.844 97.2914) rotate(136.037) scale(46.9019 44.9168)">
<stop stop-color="white"/>
<stop offset="0.5" stop-color="#464646"/>
<stop offset="1"/>
</radialGradient>
<radialGradient id="paint5_radial_330_4317" cx="0" cy="0" r="1" gradientUnits="userSpaceOnUse" gradientTransform="translate(475.271 99.1397) scale(25.6559 25.6559)">
<stop stop-color="#EFEFEF"/>
<stop offset="0.55" stop-color="#AFAFAF"/>
<stop offset="1" stop-color="#3F3F3F"/>
</radialGradient>
<linearGradient id="paint6_linear_330_4317" x1="481.492" y1="89.3261" x2="480.253" y2="102.732" gradientUnits="userSpaceOnUse">
<stop stop-color="white" stop-opacity="0.766"/>
<stop offset="1" stop-color="#AAAAAA" stop-opacity="0.475"/>
</linearGradient>
<radialGradient id="paint7_radial_330_4317" cx="0" cy="0" r="1" gradientUnits="userSpaceOnUse" gradientTransform="translate(470.522 97.6677) scale(11.1728 11.1728)">
<stop stop-color="white"/>
<stop offset="1" stop-color="white" stop-opacity="0"/>
</radialGradient>
<clipPath id="clip0_330_4317">
<rect width="500" height="413.959" fill="white"/>
</clipPath>
</defs>
</svg>
