<svg width="500" height="500" viewBox="0 0 500 500" fill="none" xmlns="http://www.w3.org/2000/svg">
<path d="M261.875 52.1252C260.5 52.3752 254.625 53.6252 248.75 55.0002C242.875 56.2502 232.625 57.6252 225.875 58.0002C219 58.2502 213.25 58.8752 212.875 59.2502C212.5 59.6252 213.375 61.3752 214.875 63.2502C218.5 67.8752 218.25 69.1252 212.875 73.2502C210.25 75.2502 205.375 79.3752 201.875 82.6252C196.625 87.5002 194.625 88.5002 189 89.2502L182.25 90.1252L186.625 81.8752C189 77.3752 190.625 73.7502 190.125 73.7502C188.875 73.8752 178.25 85.1252 173.25 91.7502C167.375 99.5002 161.75 110.5 158 121.75C154.625 131.75 154.125 136.125 157.125 130.625C159.75 125.75 165.125 118.75 166.125 118.75C166.625 118.75 168.375 121.375 170 124.625C172.75 130.25 173 130.375 173.875 127.5C174.375 125.75 175.125 120.375 175.625 115.625C176.5 106.875 176.5 106.875 184.125 99.6252C193.875 90.1252 198.25 87.5002 211.875 82.6252L223.125 78.6252L225 81.5002C226 83.0002 229.5 87.8752 232.875 92.2502C238.625 100 238.75 100.25 237.5 105.375C236.75 108.25 235.5 116.25 234.625 123.125L233.125 135.5L220 141C210.375 144.875 202.875 147 191.875 148.75C183.625 150 176.75 150.875 176.625 150.75C176.375 150.625 175.875 146.125 175.5 140.875C175 135.625 174.125 131.25 173.625 131.25C172.25 131.25 166.625 142.625 165 148.75C164 152.625 162.5 154.375 158.75 156.5C152.875 159.875 152.75 161.375 156.875 168.125C159.125 171.75 159.875 175 160 180C160 186 162.625 199.375 164.125 200.75C164.375 201.125 165.875 198 167.375 193.875C168.875 189.75 170.625 186 171.25 185.625C173 184.5 191 197.625 192 200.625C192.375 202 194.875 207.5 197.625 212.875L202.375 222.625L199.625 223.875C198.125 224.5 193.5 225.5 189.375 226L181.875 227L187.75 230.375C194.5 234.5 206.25 238.75 210.375 238.75C212 238.75 215 240.625 217.625 243.25C223.125 249.125 231.125 254.625 235.625 255.75C238.75 256.5 239 256.375 238.25 254.25C237.75 253 237 249.625 236.625 246.625L235.875 241.25H247.5C258.25 241.25 259.25 241.5 263.625 244.875C266.125 246.75 269.5 249.125 271 249.875C274.625 251.75 274.5 251.875 265.375 255.75L258.125 258.875L266.875 258.125C271.75 257.75 279.25 256.5 283.75 255.5C294.25 253.125 315.25 242.625 322.5 236.25L328.125 231.25L321.25 234.25C317.5 236 312.125 237.75 309.5 238.25C304.75 239.125 304.625 239 305.375 236.125C305.875 234.5 306.25 230.125 306.25 226.5C306.25 221.875 306.75 220 308 220C310.5 220 322.375 215 327.75 211.625C333.875 207.875 335.375 208 339.25 212.5L342.375 216.375L344.25 211.875C345.25 209.5 346.625 204.5 347.375 200.875C348 197.125 350.375 191.25 352.625 187.625C356.75 181 362.75 164.875 361.5 163.75C361.25 163.375 360.625 163.875 360.375 164.75C359.75 166.5 350.125 173 349.25 172.125C349 171.875 347.875 160.75 346.875 147.375C345.875 134 344.5 121 343.875 118.375C342.5 112.75 344.25 112.375 351.625 116.25L356.25 118.75L353.25 112.625C351.5 109.375 346.5 102.625 342 97.7502C337.5 92.8752 332.75 86.7502 331.375 84.1252C330 81.5002 326.875 77.1252 324.5 74.3752L320.125 69.3752L320 74.6252C320 77.6252 319.5 80.0002 318.75 80.0002C318.125 80.0002 314.625 78.8752 311 77.5002C307.375 76.0002 300.125 73.7502 295 72.5002C289.875 71.1252 280.125 68.1252 273.375 65.7502L261.125 61.5002L264.875 58.8752C266.875 57.3752 271 55.1252 274 53.7502L279.375 51.2502L271.875 51.3752C267.75 51.5002 263.25 51.7502 261.875 52.1252ZM295.625 79.2502C301.125 83.6252 307.25 89.0002 309.25 91.0002L312.875 94.8752L308.375 100.875C301.25 110.625 294.875 115.875 288.75 117.5C285.625 118.25 277.625 120.625 270.875 122.75C264.125 124.75 257.875 126.125 256.875 125.75C255.125 125.125 249 116 243.25 105.625L239.875 99.2502L243.125 89.3752C247.75 74.8752 249.25 73.2502 259.625 72.3752C264.25 72.0002 272.125 71.5002 276.875 71.5002L285.75 71.2502L295.625 79.2502ZM331.375 119C336.875 127.5 338 129.25 342.125 137.125L345.5 143.75L343.125 150.25C341.875 153.875 338.75 161.5 336.125 167L331.5 177.25L325.625 177.75C322.375 178 314.875 177.75 309 177.375L298.25 176.5L286.625 164.25C280.125 157.375 274.375 150.875 273.75 149.75C272.75 148.125 274.375 145.125 281.75 135.375C295.625 116.875 295.5 117 306.25 115.125C311.375 114.25 316.25 113.25 316.875 113.125C317.625 112.875 320.125 112.625 322.625 112.625C326.875 112.5 327.625 113.125 331.375 119ZM220.25 155.625C233.125 160.125 233.75 160.5 234.25 164.25C234.625 166.375 236 174.625 237.25 182.5C239 193.125 239.25 197.375 238.25 198.625C236.375 201.125 217.5 216.25 216.375 216.25C215 216.25 194.875 200.875 192.125 197.875C189.75 195.125 181.25 175.5 181.25 172.5C181.25 168.25 201.5 149.375 204.875 150.375C206 150.75 212.875 153.125 220.25 155.625ZM279 173.375L296.875 177.875L307.75 188C313.75 193.625 318.75 198.75 318.75 199.375C318.75 201.125 308.5 216.375 300.625 226.25C290.5 239 285.875 242.5 279.625 242.5C267.375 242.375 257.625 240.25 248.5 235.625C235.125 228.875 235.625 230 238.25 214.25C239.375 206.75 241.5 198.375 242.875 195.625C249.5 182.25 257.875 168.75 259.5 168.75C260.375 168.75 269.25 170.75 279 173.375Z" fill="#E6E6E6"/>
<path d="M234.5 281.125C216 285.25 197.25 294.375 184.375 305.625C178.875 310.5 178.375 311.375 180 313C181.625 314.625 182.875 314.125 190.625 308C217 287.375 252.125 279.75 283.75 287.875C299.375 291.875 310.625 297.375 323.25 307C332 313.75 333.75 314.625 335.125 313C337 310.75 334.75 308 325.625 301.375C305.75 286.75 286.625 280.25 261.25 279.375C248.875 278.875 243.375 279.25 234.5 281.125Z" fill="#E6E6E6"/>
<path d="M237 293.125C233 294 229.25 295.25 228.625 295.875C227.25 297.25 230.875 314.75 233.375 318.625C235.125 321.375 235.75 321.5 242.875 320.75C247.125 320.375 251 319.5 251.625 318.875C253.25 317.25 251.375 312.25 249.375 313C244.125 315 239.125 315.125 238.375 313.25C237.75 311.875 238.875 311 242.25 310C244.75 309.375 247.5 308.75 248.25 308.75C249.125 308.75 249.375 307.5 249 305.625C248.375 302.25 247.75 302 241 303.625C236.75 304.625 235 303.75 235 300.75C235 300.5 238 299.75 241.75 298.875C247.875 297.5 248.375 297.125 247.75 294.375C247.125 290.875 247.375 290.875 237 293.125Z" fill="#E6E6E6"/>
<path d="M271.875 297.5C269.625 302 265.875 317.25 266.875 318.625C267.125 319.25 268.5 320 269.875 320.375C271.875 320.875 272.5 320.125 273.125 316L274 311L280.75 311.875C287.375 312.625 287.5 312.625 287.5 309.5C287.5 307.125 286.875 306.25 285.125 306.25C280.375 306.25 276.25 304 277.125 301.875C277.625 300.375 278.75 300 281 300.625C290.75 303 291.25 303 291.25 299.625C291.25 296.875 290.375 296.125 286.625 295.125C278 292.625 274 293.375 271.875 297.5Z" fill="#E6E6E6"/>
<path d="M204.25 306L201.625 308.25L205.875 313.125C214.375 323 215.25 328 209 329.625C206.25 330.25 204.875 329.375 199.375 323.125C193.5 316.625 192.625 316 190.25 317.375C186.875 319.125 187.25 319.875 195.25 329.25C202.125 337 206.5 338.75 212.375 335.75C220.75 331.375 222.25 323.5 216.375 315.5C214.375 312.875 211.375 309.125 209.75 307.25C207 304 206.75 303.875 204.25 306Z" fill="#E6E6E6"/>
<path d="M301.875 317.5C295.75 321.625 290.5 325.5 290.25 326.125C290 326.875 291.25 327.75 293 328.25C295.5 328.875 297.875 328 302.75 324.625C306.375 322.25 309.5 320.375 309.75 320.5C309.875 320.75 309.625 322.5 309.25 324.625C308.625 327.5 308 328.25 306.25 327.875C303.25 327.125 301.625 330 304.25 331.5C305.375 332.125 306.25 333.875 306.25 335.375C306.25 338.625 308.375 341.25 310.875 341.25C311.75 341.25 312.5 340.5 312.5 339.5C312.5 338.625 314.25 332.375 316.25 325.625C319.125 316.375 319.625 313 318.625 311.75C316.25 308.875 313.75 309.875 301.875 317.5Z" fill="#E6E6E6"/>
<path d="M242.5 328.125C232 330.75 222.125 335.75 215.125 342C209.75 346.875 209 348.125 210.125 350.125C211.25 352.5 211.75 352.25 217.125 347.5C231.375 335 248.625 329.625 266.125 332.375C278.125 334.25 289.375 339.5 297.25 346.75C301.875 351.125 303.625 352.125 304.75 351C306.875 348.875 306.625 348 303.375 344.75C287.875 329.375 264.125 322.875 242.5 328.125Z" fill="#E6E6E6"/>
<path d="M51.3749 363.875C45.8749 365.625 40.3749 369.75 37.3749 374.5C34.3749 379.375 34.1249 393.375 36.8749 398.625C42.4999 409.5 58.2499 414.125 70.4999 408.625C72.8749 407.5 73.7499 406.125 73.7499 403.375C73.7499 400.375 73.3749 399.875 71.6249 400.625C60.2499 405.5 54.2499 404 49.1249 395.375C46.4999 390.875 45.9999 388.75 46.4999 383.625C47.3749 374.75 52.1249 370 59.8749 370C65.1249 370 65.8749 370.5 68.7499 374.625L71.8749 379.25L72.2499 372.5C72.4999 368.875 72.1249 365.375 71.4999 364.75C69.7499 363 56.2499 362.375 51.3749 363.875Z" fill="#E6E6E6"/>
<path d="M347.375 363.75C334 367.75 327.375 384.5 333.875 397.75C342.875 416.25 368.75 415.125 376.75 396C384.625 377.375 366.75 357.875 347.375 363.75ZM360.625 372.75C364.5 376.25 367.125 387.125 365.75 394.125C363.5 406 351.875 407.375 346.375 396.5C342.25 388.375 342.375 378 346.875 373.25C350.625 369.125 356.125 369 360.625 372.75Z" fill="#E6E6E6"/>
<path d="M453.375 364.25C450.75 365.25 447.5 367 446.25 368.125C443.125 370.875 442 377.125 443.625 381.5C445 385.25 453.375 390.5 460 391.875C464.125 392.75 470 396.875 470 398.875C470 401.875 465.625 403.75 458.375 403.75C451 403.625 450.5 403.5 447.25 399.125L443.75 394.625V401.5C443.75 409.5 443.875 409.5 455.375 410.75C472.125 412.5 483.625 404.5 480.75 393.125C479.5 388 475.75 385.375 465.5 382.125C458.625 380 455.375 378.25 454.5 376.375C452.625 372.125 455.5 370 463.5 370C469.625 370 471 370.5 474.5 373.875L478.5 377.75L477.875 371.625C477.5 368.375 476.75 365.125 476.25 364.625C474.5 362.625 458.25 362.375 453.375 364.25Z" fill="#E6E6E6"/>
<path d="M84.25 366.5C85.875 368.75 86.25 373.125 86.25 387.75C86.25 398.625 85.75 406.375 85 406.875C81.875 408.875 84.375 410 91.875 410C99.375 410 101.875 408.875 98.75 406.875C98.125 406.5 97.5 402.5 97.5 398V390H105.625H113.75V398C113.75 402.5 113.25 406.5 112.5 406.875C109.375 408.875 112 410 119.5 410C127 410 127.625 409.75 126.75 407.75C126.125 406.625 125.5 397.5 125.25 387.75C125 373 125.25 369.25 126.875 366.75L128.75 363.75H120C112 363.75 109.25 364.875 112.5 366.875C113.25 367.25 113.75 371 113.75 375.125V382.5H105.625H97.5V375.125C97.5 371 98.125 367.25 98.75 366.875C102 364.875 99.25 363.75 91.125 363.75H82.375L84.25 366.5Z" fill="#E6E6E6"/>
<path d="M150 366.125C151.125 368.25 150.125 371.875 144.875 385.875C141.375 395.375 137.75 404.375 136.75 405.875C135.75 407.375 135 409 135 409.375C135 409.75 138.125 410 141.875 410C148.5 410 148.625 409.875 147.375 407.125C146.5 405.125 146.5 403.25 147.375 400.875C148.625 397.5 149 397.375 156.5 397.75C163.875 398.125 164.25 398.25 165.25 401.875C165.75 404 165.625 406.125 165 406.75C162.375 409.375 164 410 172.625 410H181.375L179.375 406.5C178.25 404.625 174.375 394.375 170.75 383.75L164.25 364.375L156.375 364C148.875 363.625 148.625 363.75 150 366.125ZM158.625 379.625C161.875 392.25 162.125 391.25 156.375 391.25C153.5 391.25 151.25 390.875 151.25 390.25C151.25 389.5 152.875 384.625 155.625 376.5C156.5 374 157.375 374.75 158.625 379.625Z" fill="#E6E6E6"/>
<path d="M188.75 364.875C188.75 365.625 189.375 366.5 190.125 367C192.125 368.25 190.25 403.5 188 407.125C186.25 410 186.25 410 193.875 410C201.375 410 201.5 409.875 199.625 407.75C197.375 405.25 197.125 401.5 198.375 388.25L199.125 379.625L205 394.5C210.625 408.5 211.125 409.375 214.5 409.375C217.75 409.375 218.25 408.625 222.625 397C225.25 390.125 227.75 383.125 228.25 381.375C229.125 378.5 229.375 379 230.125 384.375C231.5 393.75 231.375 406 230 406.875C226.75 408.875 229.5 410 237.5 410H246.25L244.5 407.125C242.25 403.5 239.375 368.875 241.25 367C243.875 364.375 242.25 363.625 234.75 364L227 364.375L222 378.375C219.25 386.125 216.625 392.5 216.125 392.5C215.75 392.5 212.875 386 209.875 378.125L204.5 363.75H196.625C192.25 363.75 188.75 364.25 188.75 364.875Z" fill="#E6E6E6"/>
<path d="M257 365.875C258.5 368.75 258.5 405 257 407.75C256.125 409.75 256.875 410 265 410C273.75 410 274 409.875 272.125 407.75C270.75 406.25 270 403.25 270 399.75V394L278.875 393.5C287 393.125 288.125 392.75 291.375 389C294.25 385.75 295 383.75 295 379C295 374 294.375 372.375 291.375 369.5C286.875 365.125 281.125 363.875 267 363.75C256.875 363.75 256.125 363.875 257 365.875ZM281 373.25C286.375 377 283.625 386.875 276.875 387.5C270.25 388.25 270 388 270 379.375V371.25H274.125C276.375 371.25 279.5 372.125 281 373.25Z" fill="#E6E6E6"/>
<path d="M305.5 366.875C308.5 371.375 308.5 404.375 305.375 407.75C303.5 409.875 303.75 410 312.375 410C320.875 410 321.25 409.875 320 407.625C318.375 404.375 318.375 367.875 320 366.875C323.25 364.875 320.5 363.75 312.375 363.75H303.5L305.5 366.875Z" fill="#E6E6E6"/>
<path d="M389.125 366C390.875 368 391.25 371.125 391.25 387.25C391.25 398.5 390.75 406.375 390 406.875C387 408.75 389.25 410 395.875 410C402.625 410 402.875 409.875 400.75 407.625C399 405.75 398.75 403 399 391.125L399.375 376.875L410.375 393.375C421 409.25 421.625 410 425.75 410H430V388.875C430 376 430.5 367.375 431.25 366.875C434.25 365 432 363.75 425.375 363.75C418.625 363.75 418.5 363.875 420.375 366C422 367.875 422.5 370.875 422.5 380.125V391.875L413.375 378.125L404.25 364.375L395.625 364C387.25 363.625 387 363.75 389.125 366Z" fill="#E6E6E6"/>
<path d="M268.125 431.125C259.25 435.25 255 442.375 255 453.25C255 466.625 263.625 476.25 275.75 476.25C279.5 476.25 284.75 475.375 287.5 474.25C292.25 472.375 292.75 472.375 295 474.375C297.5 476.625 297.5 476.5 297.5 467.625C297.5 462.625 298.125 457.5 298.75 456.125C300 453.875 299.625 453.75 291.125 453.75C282.375 453.75 282.125 453.75 284.25 456.125C287.5 459.75 286.5 466.5 282.25 468.5C274.625 472.125 267.5 464.375 267.5 452.25C267.5 443.625 269.375 439.125 273.875 436.75C279.75 433.75 285.625 434.5 290.625 438.875L295 442.75V437C295 431.875 294.625 431 291.75 430C286.5 428 273.625 428.625 268.125 431.125Z" fill="#E6E6E6"/>
<path d="M415.75 430.75C411.625 434.75 414.5 442.5 420.125 442.5C423 442.5 427.5 438.25 427.5 435.625C427.5 433 423 428.75 420.125 428.75C418.75 428.75 416.75 429.625 415.75 430.75ZM424.25 432C426.75 434.5 426.75 436.125 424.125 439C420.5 443 415 441 415 435.625C415 430.375 420.5 428.25 424.25 432Z" fill="#E6E6E6"/>
<path d="M417.5 435.25C417.5 438.375 417.875 438.875 418.75 437.5C419.75 436 420.25 435.875 421.125 437.25C421.875 438.5 422.375 438.25 422.875 436.125C423.875 432.625 423 431.25 419.875 431.25C418 431.25 417.5 432.125 417.5 435.25ZM421.875 433.75C421.5 434.375 420.625 435 419.875 435C419.25 435 418.75 434.375 418.75 433.75C418.75 433 419.625 432.5 420.75 432.5C421.75 432.5 422.25 433 421.875 433.75Z" fill="#E6E6E6"/>
<path d="M116.75 432.75C118.375 435 118.75 439.25 118.75 452.5C118.75 465.75 118.375 470 116.75 472.25L114.875 475H133H151.25V470.875C151.25 468.75 151.625 465.5 152.125 463.75C152.875 460.75 152.75 460.75 148.5 464.625C144.75 468.25 143.5 468.75 137.125 468.75H130V450.625C130 434.75 130.25 432.5 132.25 431.375C133.75 430.375 131.875 430.125 124.625 430H114.875L116.75 432.75Z" fill="#E6E6E6"/>
<path d="M160.375 432.25C162.125 434.25 162.5 437.625 162.5 452.5C162.5 467.375 162.125 470.75 160.375 472.75C158.375 474.875 159 475 177.875 475H197.5V468.5V462L194 465.375C190.875 468.375 189.5 468.75 182.125 468.75H173.75V461.875V455H178.875C181.625 455 185 455.625 186.375 456.25C188.625 457.5 188.75 457.125 188.75 451.25C188.75 444.875 188.75 444.875 186 446.75C184.5 447.875 181.125 448.75 178.5 448.75H173.75V442.5V436.25H182.125C189 436.25 191 436.75 193.375 439L196.25 441.625V438.625C196.25 437 195.875 434.375 195.5 432.75C194.75 430 194.375 430 176.5 430C159 430 158.375 430.125 160.375 432.25Z" fill="#E6E6E6"/>
<path d="M219.375 432.75C220 435.5 207.625 469.875 204.75 473.375C203.75 474.625 204.875 475 210.5 475C217.375 475 218.75 474.25 216.25 471.75C215.375 470.875 215.25 469.375 216.125 467.125C217.375 464 217.875 463.75 225.5 463.75C233.25 463.75 233.5 463.875 234.125 467.125C234.5 469.125 234.25 471.125 233.625 471.875C231.25 474.375 232.75 475 241.25 475C250.375 475 251.125 474.625 248.25 471.375C247.375 470.25 243.625 460.5 240 449.625L233.375 430H226C219 430 218.75 430.125 219.375 432.75ZM228.75 448.5C230 452.75 230.625 456.375 230.25 456.75C229.25 457.875 220 457.625 220 456.5C220 454.5 225.25 439.875 225.875 440.375C226.125 440.75 227.375 444.375 228.75 448.5Z" fill="#E6E6E6"/>
<path d="M310.375 432.25C312.125 434.125 312.5 437.375 312.5 449.75C312.5 467.125 313.375 470.25 319 473.75C324.375 477 338.5 477.25 343.75 474.125C349.125 471 350 467.5 350 450.375C350 437.375 350.375 434.125 352.125 432.25C354 430.125 353.875 430 346.875 430C341.125 430 339.875 430.375 341 431.5C342 432.5 342.5 438.25 342.5 448.875C342.5 467.375 341.875 468.75 333.125 468.75C324.875 468.75 323.75 466.375 323.75 448.5C323.75 436.875 324.125 433.5 325.75 432C327.5 430.125 326.75 430 318 430C308.75 430 308.5 430.125 310.375 432.25Z" fill="#E6E6E6"/>
<path d="M364.125 432.25C365.875 434.25 366.25 437.625 366.25 452.5C366.25 467.375 365.875 470.75 364.125 472.75C362.125 474.875 362.75 475 381.625 475H401.25V468.5V462L397.75 465.375C394.625 468.375 393.25 468.75 385.875 468.75H377.5V461.875V455H382.625C385.375 455 388.75 455.625 390.125 456.25C392.375 457.5 392.5 457.125 392.5 451.25C392.5 444.875 392.5 444.875 389.75 446.75C388.25 447.875 384.875 448.75 382.25 448.75H377.5V442.5V436.25H385.875C392.75 436.25 394.75 436.75 397.25 439L400.375 441.875L399.5 437.625C399.125 435.375 398.75 432.625 398.75 431.75C398.75 430.375 395.125 430 380.375 430C362.75 430 362.125 430.125 364.125 432.25Z" fill="#E6E6E6"/>
</svg>
