<?xml version="1.0" standalone="no"?>
<!DOCTYPE svg PUBLIC "-//W3C//DTD SVG 20010904//EN"
 "http://www.w3.org/TR/2001/REC-SVG-20010904/DTD/svg10.dtd">
<svg version="1.0" xmlns="http://www.w3.org/2000/svg"
 width="400.000000pt" height="400.000000pt" viewBox="0 0 400.000000 400.000000"
 preserveAspectRatio="xMidYMid meet">

<g transform="translate(0.000000,400.000000) scale(0.100000,-0.100000)"
fill="#000000" stroke="none">
<path d="M2095 3583 c-11 -2 -58 -12 -105 -23 -47 -10 -129 -21 -183 -24 -55
-2 -101 -7 -104 -10 -3 -3 4 -17 16 -32 29 -37 27 -47 -16 -80 -21 -16 -60
-49 -88 -75 -42 -39 -58 -47 -103 -53 l-54 -7 35 66 c19 36 32 65 28 65 -10
-1 -95 -91 -135 -144 -47 -62 -92 -150 -122 -240 -27 -80 -31 -115 -7 -71 21
39 64 95 72 95 4 0 18 -21 31 -47 22 -45 24 -46 31 -23 4 14 10 57 14 95 7 70
7 70 68 128 78 76 113 97 222 136 l90 32 15 -23 c8 -12 36 -51 63 -86 46 -62
47 -64 37 -105 -6 -23 -16 -87 -23 -142 l-12 -99 -105 -44 c-77 -31 -137 -48
-225 -62 -66 -10 -121 -17 -122 -16 -2 1 -6 37 -9 79 -4 42 -11 77 -15 77 -11
0 -56 -91 -69 -140 -8 -31 -20 -45 -50 -62 -47 -27 -48 -39 -15 -93 18 -29 24
-55 25 -95 0 -48 21 -155 33 -166 2 -3 14 22 26 55 12 33 26 63 31 66 14 9
158 -96 166 -120 3 -11 23 -55 45 -98 l38 -78 -22 -10 c-12 -5 -49 -13 -82
-17 l-60 -8 47 -27 c54 -33 148 -67 181 -67 13 0 37 -15 58 -36 44 -47 108
-91 144 -100 25 -6 27 -5 21 12 -4 10 -10 37 -13 61 l-6 43 93 0 c86 0 94 -2
129 -29 20 -15 47 -34 59 -40 29 -15 28 -16 -45 -47 l-58 -25 70 6 c39 3 99
13 135 21 84 19 252 103 310 154 l45 40 -55 -24 c-30 -14 -73 -28 -94 -32 -38
-7 -39 -6 -33 17 4 13 7 48 7 77 0 37 4 52 14 52 20 0 115 40 158 67 49 30 61
29 92 -7 l25 -31 15 36 c8 19 19 59 25 88 5 30 24 77 42 106 33 53 81 182 71
191 -2 3 -7 -1 -9 -8 -5 -14 -82 -66 -89 -59 -2 2 -11 91 -19 198 -8 107 -19
211 -24 232 -11 45 3 48 62 17 l37 -20 -24 49 c-14 26 -54 80 -90 119 -36 39
-74 88 -85 109 -11 21 -36 56 -55 78 l-35 40 -1 -42 c0 -24 -4 -43 -10 -43 -5
0 -33 9 -62 20 -29 12 -87 30 -128 40 -41 11 -119 35 -173 54 l-98 34 30 21
c16 12 49 30 73 41 l43 20 -60 -1 c-33 -1 -69 -3 -80 -6z m270 -217 c44 -35
93 -78 109 -94 l29 -31 -36 -48 c-57 -78 -108 -120 -157 -133 -25 -6 -89 -25
-143 -42 -54 -16 -104 -27 -112 -24 -14 5 -63 78 -109 161 l-27 51 26 79 c37
116 49 129 132 136 37 3 100 7 138 7 l71 2 79 -64z m286 -318 c44 -68 53 -82
86 -145 l27 -53 -19 -52 c-10 -29 -35 -90 -56 -134 l-37 -82 -47 -4 c-26 -2
-86 0 -133 3 l-86 7 -93 98 c-52 55 -98 107 -103 116 -8 13 5 37 64 115 111
148 110 147 196 162 41 7 80 15 85 16 6 2 26 4 46 4 34 1 40 -4 70 -51z m-889
-293 c103 -36 108 -39 112 -69 3 -17 14 -83 24 -146 14 -85 16 -119 8 -129
-15 -20 -166 -141 -175 -141 -11 0 -172 123 -194 147 -19 22 -87 179 -87 203
0 34 162 185 189 177 9 -3 64 -22 123 -42z m470 -142 l143 -36 87 -81 c48 -45
88 -86 88 -91 0 -14 -82 -136 -145 -215 -81 -102 -118 -130 -168 -130 -98 1
-176 18 -249 55 -107 54 -103 45 -82 171 9 60 26 127 37 149 53 107 120 215
133 215 7 0 78 -16 156 -37z"/>
<path d="M1876 1751 c-148 -33 -298 -106 -401 -196 -44 -39 -48 -46 -35 -59
13 -13 23 -9 85 40 211 165 492 226 745 161 125 -32 215 -76 316 -153 70 -54
84 -61 95 -48 15 18 -3 40 -76 93 -159 117 -312 169 -515 176 -99 4 -143 1
-214 -14z"/>
<path d="M1896 1655 c-32 -7 -62 -17 -67 -22 -11 -11 18 -151 38 -182 14 -22
19 -23 76 -17 34 3 65 10 70 15 13 13 -2 53 -18 47 -42 -16 -82 -17 -88 -2 -5
11 4 18 31 26 20 5 42 10 48 10 7 0 9 10 6 25 -5 27 -10 29 -64 16 -34 -8 -48
-1 -48 23 0 2 24 8 54 15 49 11 53 14 48 36 -5 28 -3 28 -86 10z"/>
<path d="M2175 1620 c-18 -36 -48 -158 -40 -169 2 -5 13 -11 24 -14 16 -4 21
2 26 35 l7 40 54 -7 c53 -6 54 -6 54 19 0 19 -5 26 -19 26 -38 0 -71 18 -64
35 4 12 13 15 31 10 78 -19 82 -19 82 8 0 22 -7 28 -37 36 -69 20 -101 14
-118 -19z"/>
<path d="M1634 1552 l-21 -18 34 -39 c68 -79 75 -119 25 -132 -22 -5 -33 2
-77 52 -47 52 -54 57 -73 46 -27 -14 -24 -20 40 -95 55 -62 90 -76 137 -52 67
35 79 98 32 162 -16 21 -40 51 -53 66 -22 26 -24 27 -44 10z"/>
<path d="M2415 1460 c-49 -33 -91 -64 -93 -69 -2 -6 8 -13 22 -17 20 -5 39 2
78 29 29 19 54 34 56 33 1 -2 -1 -16 -4 -33 -5 -23 -10 -29 -24 -26 -24 6 -37
-17 -16 -29 9 -5 16 -19 16 -31 0 -26 17 -47 37 -47 7 0 13 6 13 14 0 7 14 57
30 111 23 74 27 101 19 111 -19 23 -39 15 -134 -46z"/>
<path d="M1940 1375 c-84 -21 -163 -61 -219 -111 -43 -39 -49 -49 -40 -65 9
-19 13 -17 56 21 114 100 252 143 392 121 96 -15 186 -57 249 -115 37 -35 51
-43 60 -34 17 17 15 24 -11 50 -124 123 -314 175 -487 133z"/>
<path d="M411 1089 c-44 -14 -88 -47 -112 -85 -24 -39 -26 -151 -4 -193 45
-87 171 -124 269 -80 19 9 26 20 26 42 0 24 -3 28 -17 22 -91 -39 -139 -27
-180 42 -21 36 -25 53 -21 94 7 71 45 109 107 109 42 0 48 -4 71 -37 l25 -37
3 54 c2 29 -1 57 -6 62 -14 14 -122 19 -161 7z"/>
<path d="M2779 1090 c-107 -32 -160 -166 -108 -272 72 -148 279 -139 343 14
63 149 -80 305 -235 258z m106 -72 c31 -28 52 -115 41 -171 -18 -95 -111 -106
-155 -19 -33 65 -32 148 4 186 30 33 74 34 110 4z"/>
<path d="M3627 1086 c-21 -8 -47 -22 -57 -31 -25 -22 -34 -72 -21 -107 11 -30
78 -72 131 -83 33 -7 80 -40 80 -56 0 -24 -35 -39 -93 -39 -59 1 -63 2 -89 37
l-28 36 0 -55 c0 -64 1 -64 93 -74 134 -14 226 50 203 141 -10 41 -40 62 -122
88 -55 17 -81 31 -88 46 -15 34 8 51 72 51 49 0 60 -4 88 -31 l32 -31 -5 49
c-3 26 -9 52 -13 56 -14 16 -144 18 -183 3z"/>
<path d="M674 1068 c13 -18 16 -53 16 -170 0 -87 -4 -149 -10 -153 -25 -16 -5
-25 55 -25 60 0 80 9 55 25 -5 3 -10 35 -10 71 l0 64 65 0 65 0 0 -64 c0 -36
-4 -68 -10 -71 -25 -16 -4 -25 56 -25 60 0 65 2 58 18 -5 9 -10 82 -12 160 -2
118 0 148 13 168 l15 24 -70 0 c-64 0 -86 -9 -60 -25 6 -3 10 -33 10 -66 l0
-59 -65 0 -65 0 0 59 c0 33 5 63 10 66 26 16 4 25 -61 25 l-70 0 15 -22z"/>
<path d="M1200 1071 c9 -17 1 -46 -41 -158 -28 -76 -57 -148 -65 -160 -8 -12
-14 -25 -14 -28 0 -3 25 -5 55 -5 53 0 54 1 44 23 -7 16 -7 31 0 50 10 27 13
28 73 25 59 -3 62 -4 70 -33 4 -17 3 -34 -2 -39 -21 -21 -8 -26 61 -26 l70 0
-16 28 c-9 15 -40 97 -69 182 l-52 155 -63 3 c-60 3 -62 2 -51 -17z m69 -108
c26 -101 28 -93 -18 -93 -23 0 -41 3 -41 8 0 6 13 45 35 110 7 20 14 14 24
-25z"/>
<path d="M1510 1081 c0 -6 5 -13 11 -17 16 -10 1 -292 -17 -321 -14 -23 -14
-23 47 -23 60 0 61 1 46 18 -18 20 -20 50 -10 156 l6 69 47 -119 c45 -112 49
-119 76 -119 26 0 30 6 65 99 21 55 41 111 45 125 7 23 9 19 15 -24 11 -75 10
-173 -1 -180 -26 -16 -4 -25 60 -25 l70 0 -14 23 c-18 29 -41 306 -26 321 21
21 8 27 -52 24 l-62 -3 -40 -112 c-22 -62 -43 -113 -47 -113 -3 0 -26 52 -50
115 l-43 115 -63 0 c-35 0 -63 -4 -63 -9z"/>
<path d="M2056 1073 c12 -23 12 -313 0 -335 -7 -16 -1 -18 64 -18 70 0 72 1
57 18 -11 12 -17 36 -17 64 l0 46 71 4 c65 3 74 6 100 36 23 26 29 42 29 80 0
40 -5 53 -29 76 -36 35 -82 45 -195 46 -81 0 -87 -1 -80 -17z m192 -59 c43
-30 21 -109 -33 -114 -53 -6 -55 -4 -55 65 l0 65 33 0 c18 0 43 -7 55 -16z"/>
<path d="M2444 1065 c24 -36 24 -300 -1 -327 -15 -17 -13 -18 56 -18 68 0 71
1 61 19 -13 26 -13 318 0 326 26 16 4 25 -61 25 l-71 0 16 -25z"/>
<path d="M3113 1072 c14 -16 17 -41 17 -170 0 -90 -4 -153 -10 -157 -24 -15
-6 -25 47 -25 54 0 56 1 39 19 -14 15 -16 37 -14 132 l3 114 88 -132 c85 -127
90 -133 123 -133 l34 0 0 169 c0 103 4 172 10 176 24 15 6 25 -47 25 -54 0
-55 -1 -40 -18 13 -15 17 -39 17 -113 l0 -94 -73 110 -73 110 -69 3 c-67 3
-69 2 -52 -16z"/>
<path d="M2145 551 c-71 -33 -105 -90 -105 -177 0 -107 69 -184 166 -184 30 0
72 7 94 16 38 15 42 15 60 -1 20 -18 20 -17 20 54 0 40 5 81 10 92 10 18 7 19
-61 19 -70 0 -72 0 -55 -19 26 -29 18 -83 -16 -99 -61 -29 -118 33 -118 130 0
69 15 105 51 124 47 24 94 18 134 -17 l35 -31 0 46 c0 41 -3 48 -26 56 -42 16
-145 11 -189 -9z"/>
<path d="M3326 554 c-33 -32 -10 -94 35 -94 23 0 59 34 59 55 0 21 -36 55 -59
55 -11 0 -27 -7 -35 -16z m68 -10 c20 -20 20 -33 -1 -56 -29 -32 -73 -16 -73
27 0 42 44 59 74 29z"/>
<path d="M3340 518 c0 -25 3 -29 10 -18 8 12 12 13 19 2 6 -10 10 -8 14 9 8
28 1 39 -24 39 -15 0 -19 -7 -19 -32z m35 12 c-3 -5 -10 -10 -16 -10 -5 0 -9
5 -9 10 0 6 7 10 16 10 8 0 12 -4 9 -10z"/>
<path d="M934 538 c13 -18 16 -52 16 -158 0 -106 -3 -140 -16 -158 l-15 -22
145 0 146 0 0 33 c0 17 3 43 7 57 6 24 5 24 -29 -7 -30 -29 -40 -33 -91 -33
l-57 0 0 145 c0 127 2 145 18 154 12 8 -3 10 -61 11 l-78 0 15 -22z"/>
<path d="M1283 542 c14 -16 17 -43 17 -162 0 -119 -3 -146 -17 -162 -16 -17
-11 -18 140 -18 l157 0 0 52 0 52 -28 -27 c-25 -24 -36 -27 -95 -27 l-67 0 0
55 0 55 41 0 c22 0 49 -5 60 -10 18 -10 19 -7 19 40 0 51 0 51 -22 36 -12 -9
-39 -16 -60 -16 l-38 0 0 50 0 50 67 0 c55 0 71 -4 90 -22 l23 -21 0 24 c0 13
-3 34 -6 47 -6 22 -9 22 -152 22 -140 0 -145 -1 -129 -18z"/>
<path d="M1755 538 c5 -22 -94 -297 -117 -325 -8 -10 1 -13 46 -13 55 0 66 6
46 26 -7 7 -8 19 -1 37 10 25 14 27 75 27 62 0 64 -1 69 -27 3 -16 1 -32 -4
-38 -19 -20 -7 -25 61 -25 73 0 79 3 56 29 -7 9 -37 87 -66 174 l-53 157 -59
0 c-56 0 -58 -1 -53 -22z m75 -126 c10 -34 15 -63 12 -66 -8 -9 -82 -7 -82 2
0 16 42 133 47 129 2 -3 12 -32 23 -65z"/>
<path d="M2483 542 c14 -15 17 -41 17 -140 0 -139 7 -164 52 -192 43 -26 156
-28 198 -3 43 25 50 53 50 190 0 104 3 130 17 145 15 17 14 18 -42 18 -46 0
-56 -3 -47 -12 8 -8 12 -54 12 -139 0 -148 -5 -159 -75 -159 -66 0 -75 19 -75
162 0 93 3 120 16 132 14 15 8 16 -62 16 -74 0 -76 -1 -61 -18z"/>
<path d="M2913 542 c14 -16 17 -43 17 -162 0 -119 -3 -146 -17 -162 -16 -17
-11 -18 140 -18 l157 0 0 52 0 52 -28 -27 c-25 -24 -36 -27 -95 -27 l-67 0 0
55 0 55 41 0 c22 0 49 -5 60 -10 18 -10 19 -7 19 40 0 51 0 51 -22 36 -12 -9
-39 -16 -60 -16 l-38 0 0 50 0 50 67 0 c55 0 71 -4 91 -22 l25 -23 -7 34 c-3
18 -6 40 -6 47 0 11 -29 14 -147 14 -141 0 -146 -1 -130 -18z"/>
</g>
</svg>
