<?xml version="1.0" standalone="no"?>
<!DOCTYPE svg PUBLIC "-//W3C//DTD SVG 20010904//EN"
 "http://www.w3.org/TR/2001/REC-SVG-20010904/DTD/svg10.dtd">
<svg version="1.0" xmlns="http://www.w3.org/2000/svg"
 width="200.000000pt" height="200.000000pt" viewBox="0 0 200.000000 200.000000"
 preserveAspectRatio="xMidYMid meet">

<g transform="translate(0.000000,200.000000) scale(0.100000,-0.100000)"
fill="#000000" stroke="none">
<path d="M731 1950 c-12 -8 -347 -494 -365 -528 -37 -72 -15 -141 77 -247 l35
-40 201 103 200 102 -125 0 c-83 0 -124 4 -124 11 0 6 92 141 205 301 113 159
205 293 205 296 0 8 -298 10 -309 2z"/>
<path d="M1302 1890 c-25 -36 -123 -175 -219 -310 -428 -605 -413 -581 -413
-640 0 -40 27 -91 90 -170 29 -36 54 -67 56 -69 3 -3 443 216 456 228 4 3 -58
5 -137 3 -89 -2 -145 1 -145 7 0 5 66 103 147 218 81 114 221 314 311 443 91
129 182 258 204 287 21 29 38 56 38 60 0 4 -77 8 -171 8 l-172 0 -45 -65z"/>
<path d="M1310 453 c-54 -28 -70 -70 -70 -188 0 -179 26 -215 153 -215 109 0
144 27 154 119 4 41 1 52 -22 79 -23 27 -34 32 -71 32 -43 0 -44 0 -44 -34 0
-30 3 -35 28 -38 24 -3 27 -7 27 -43 l0 -40 -70 0 -70 0 -3 124 c-2 82 1 128
9 137 7 9 31 14 65 14 44 0 56 -4 68 -22 11 -16 24 -23 46 -22 41 1 44 6 26
47 -18 45 -42 57 -124 63 -52 4 -75 1 -102 -13z"/>
<path d="M110 288 c0 -162 1 -174 23 -205 l22 -33 98 0 97 0 0 35 0 35 -80 0
-80 0 0 33 c-1 17 -1 94 0 170 l1 137 -41 0 -40 0 0 -172z"/>
<path d="M458 288 c-26 -95 -48 -186 -50 -203 -3 -28 -1 -30 31 -30 30 0 36 4
43 31 6 26 18 36 69 58 33 15 66 25 73 23 7 -3 18 -30 25 -61 12 -55 13 -56
47 -56 29 0 34 3 34 23 0 18 -66 271 -96 370 -4 14 -17 17 -67 17 l-63 0 -46
-172z m141 17 c31 -126 31 -125 -34 -125 -32 0 -55 4 -55 11 0 14 41 182 47
192 12 20 22 0 42 -78z"/>
<path d="M788 283 c3 -161 5 -179 25 -205 21 -29 22 -29 116 -26 l96 3 2 32 3
32 -83 3 -82 3 0 168 0 167 -40 0 -40 0 3 -177z"/>
<path d="M1090 255 l0 -205 40 0 40 0 0 205 0 205 -40 0 -40 0 0 -205z"/>
<path d="M1685 448 c-20 -60 -95 -357 -95 -375 0 -20 5 -23 34 -23 30 0 35 4
41 30 6 25 19 37 76 66 77 38 72 41 93 -43 11 -42 16 -48 40 -51 16 -2 33 1
38 6 7 7 -6 70 -37 183 -65 240 -53 219 -125 219 -40 0 -62 -4 -65 -12z m102
-154 c12 -49 21 -95 18 -101 -3 -8 -23 -13 -55 -13 -44 0 -50 3 -50 20 0 41
43 191 53 187 6 -2 21 -44 34 -93z"/>
</g>
</svg>
