<svg width="500" height="500" viewBox="0 0 500 500" fill="none" xmlns="http://www.w3.org/2000/svg">
<path d="M182.75 12.5C179.75 14.5 95.9998 136 91.4998 144.5C82.2498 162.5 87.7498 179.75 110.75 206.25L119.5 216.25L169.75 190.5L219.75 165H188.5C167.75 165 157.5 164 157.5 162.25C157.5 160.75 180.5 127 208.75 87C237 47.25 260 13.75 260 13C260 11 185.5 10.5 182.75 12.5Z" fill="#E6E6E6"/>
<path d="M325.5 27.5002C319.25 36.5002 294.75 71.2502 270.75 105C163.75 256.25 167.5 250.25 167.5 265C167.5 275 174.25 287.75 190 307.5C197.25 316.5 203.5 324.25 204 324.75C204.75 325.5 314.75 270.75 318 267.75C319 267 303.5 266.5 283.75 267C261.5 267.5 247.5 266.75 247.5 265.25C247.5 264 264 239.5 284.25 210.75C304.5 182.25 339.5 132.25 362 100C384.75 67.7502 407.5 35.5002 413 28.2502C418.25 21.0002 422.5 14.2502 422.5 13.2502C422.5 12.2502 403.25 11.2502 379.75 11.2502H336.75L325.5 27.5002Z" fill="#E6E6E6"/>
<path d="M327.5 386.75C314 393.75 310 404.25 310 433.75C310 478.5 316.5 487.5 348.25 487.5C375.5 487.5 384.25 480.75 386.75 457.75C387.75 447.5 387 444.75 381.25 438C375.5 431.25 372.75 430 363.5 430C352.75 430 352.5 430 352.5 438.5C352.5 446 353.25 447.25 359.5 448C365.5 448.75 366.25 449.75 366.25 458.75V468.75H348.75H331.25L330.5 437.75C330 417.25 330.75 405.75 332.75 403.5C334.5 401.25 340.5 400 349 400C360 400 363 401 366 405.5C368.75 409.5 372 411.25 377.5 411C387.75 410.75 388.5 409.5 384 399.25C379.5 388 373.5 385 353 383.5C340 382.5 334.25 383.25 327.5 386.75Z" fill="#E6E6E6"/>
<path d="M27.5 428C27.5 468.5 27.75 471.5 33.25 479.25L38.75 487.5H63.25H87.5V478.75V470H67.5H47.5V461.75C47.25 457.5 47.25 438.25 47.5 419.25L47.75 385H37.5H27.5V428Z" fill="#E6E6E6"/>
<path d="M114.5 428C108 451.75 102.5 474.5 102 478.75C101.25 485.75 101.75 486.25 109.75 486.25C117.25 486.25 118.75 485.25 120.5 478.5C122 472 125 469.5 137.75 464C146 460.25 154.25 457.75 156 458.25C157.75 459 160.5 465.75 162.25 473.5C165.25 487.25 165.5 487.5 174 487.5C181.25 487.5 182.5 486.75 182.5 481.75C182.5 477.25 166 414 158.5 389.25C157.5 385.75 154.25 385 141.75 385H126L114.5 428ZM149.75 423.75C157.5 455.25 157.5 455 141.25 455C133.25 455 127.5 454 127.5 452.25C127.5 448.75 137.75 406.75 139.25 404.25C142.25 399.25 144.75 404.25 149.75 423.75Z" fill="#E6E6E6"/>
<path d="M197 429.25C197.75 469.5 198.25 474 203.25 480.5C208.5 487.75 208.75 487.75 232.25 487L256.25 486.25L256.75 478.25L257.5 470.25L236.75 469.5L216.25 468.75V426.75V385H206.25H196.25L197 429.25Z" fill="#E6E6E6"/>
<path d="M272.5 436.25V487.5H282.5H292.5V436.25V385H282.5H272.5V436.25Z" fill="#E6E6E6"/>
<path d="M421.25 388C416.25 403 397.5 477.25 397.5 481.75C397.5 486.75 398.75 487.5 406 487.5C413.5 487.5 414.75 486.5 416.25 480C417.75 473.75 421 470.75 435.25 463.5C454.5 454 453.25 453.25 458.5 474.25C461.25 484.75 462.5 486.25 468.5 487C472.5 487.5 476.75 486.75 478 485.5C479.75 483.75 476.5 468 468.75 439.75C452.5 379.75 455.5 385 437.5 385C427.5 385 422 386 421.25 388ZM446.75 426.5C449.75 438.75 452 450.25 451.25 451.75C450.5 453.75 445.5 455 437.5 455C426.5 455 425 454.25 425 450C425 439.75 435.75 402.25 438.25 403.25C439.75 403.75 443.5 414.25 446.75 426.5Z" fill="#E6E6E6"/>
</svg>
