<svg width="500" height="211" viewBox="0 0 500 211" fill="none" xmlns="http://www.w3.org/2000/svg">
<g clip-path="url(#clip0_330_4299)">
<path fill-rule="evenodd" clip-rule="evenodd" d="M44.1723 40.1843C67.942 27.0448 92.324 25.3455 114.806 31.4757C115.772 23.795 116.319 17.0966 120.581 7.8579C114.934 11.9631 111.313 16.6149 107.159 21.6421L105.759 0.218962L87.7259 20.2571L75.3822 0.108154L67.7901 22.6414L45.7214 7.06311L49.4354 28.7349C44.3692 24.5296 38.7175 20.3239 33.0474 17.9835C37.4035 23.7234 41.6425 31.6536 44.1723 40.1843Z" fill="#E6E6E6" stroke="#E6E6E6" stroke-width="0.216566" stroke-linejoin="round"/>
<path fill-rule="evenodd" clip-rule="evenodd" d="M136.144 49.2648C129.855 44.0404 123.538 39.4799 109.657 36.0648C110.913 38.8111 111.953 42.2943 111.94 45.9249C108.357 42.1079 104.011 37.3703 98.7002 34.5567C81.163 32.2597 63.1265 36.6602 48.9976 43.7783C54.988 44.474 59.7081 49.1364 61.2999 54.2824C44.3808 42.485 34.6669 59.4964 44.4642 76.439C33.9369 71.4192 33.4461 59.1865 36.6542 51.1449C28.7506 57.145 16.6717 68.7158 9.14444 84.3889L18.8057 85.7521C7.12971 99.487 1.24944 119.273 0.108398 130.902L15.8282 125.807C10.8512 143.832 14.8362 171.888 21.1845 182.131C30.9955 174.413 38.865 164.755 47.008 152.498C52.1696 168.802 51.2413 185.763 47.2259 203.059C70.1537 216.036 98.6898 210.777 117.389 196.683C118.185 200.021 118.727 201.587 120.288 208.843C142.981 193.126 150.679 173.897 152.882 155.253L160.264 163.409C170.145 131.497 164.259 105.565 146.704 80.4457L145.979 86.3043C143.939 83.7471 140.6 80.6347 139.044 78.68C138.8 78.3736 138.86 78.2 138.7 77.951C139.532 77.4443 141.068 76.7238 141.473 75.6295C141.306 74.1063 139.54 70.178 138.235 69.4468C134.983 69.7514 132.374 72.5953 132.353 73.6374C130.663 72.0409 129.066 70.2748 124.139 68.4575C126.35 70.6947 128.474 74.1291 130.035 77.1787C133.276 79.5563 138.702 84.1146 142.747 88.2697L141.967 89.0561C137.531 85.578 125.647 85.8739 119.109 89.1742C115.927 85.3604 112.241 81.1244 107.077 76.4521C105.822 74.3041 105.705 70.4656 109.707 67.1465C105.287 67.5401 103.448 69.4514 101.366 71.22C98.2732 68.8876 94.2273 66.4636 87.6675 64.5986C82.5274 65.6423 76.3255 68.9361 73.936 71.8222C79.9336 75.0304 81.7643 75.9995 85.4053 76.2558C90.7495 76.632 95.399 75.4192 98.8127 77.6035C103.05 81.3696 110.987 88.4182 112.114 91.6205C105.254 87.6892 94.9796 89.7671 83.5584 89.1719C72.7588 87.88 66.8073 79.8889 66.6946 73.4536L59.0191 72.2429C63.3365 66.3149 68.803 63.6779 72.8386 62.2643L68.6245 58.7764C75.3739 52.9726 85.8716 48.3191 96.5559 47.3939C103.961 51.0564 110.307 55.0674 114.659 58.6557C116.626 55.3704 116.913 51.7996 117.155 49.4604C125.597 53.347 135.025 60.0082 141.921 67.0241C139.156 61.9794 137.059 56.1591 136.144 49.2648ZM103.157 128.285C99.9176 122.073 96.7465 115.038 93.0266 109.125C100.218 103.973 107.022 98.6327 118.681 95.6506C121.144 97.6945 124.767 100.146 129.937 102.027L129.93 114.308C122.599 119.33 115.271 127.515 103.157 128.285ZM127.572 126.027L136.45 125.999C137.953 127.412 141.087 132.206 141.312 135.942C140.614 141.241 136.504 150.984 129.282 154.703C129.51 150.191 128.992 144.351 128.085 141.101C123.964 145.742 117.254 147.831 113.796 148.599C112.358 144.766 110.001 140.533 107.702 137.065C113.887 135.782 121.713 131.241 127.572 126.027ZM144.899 96.1411C150.745 108.531 149.488 120.411 145.384 126.5C143.386 121.926 139.549 117.35 136.293 114.469L136.426 102.438C140.126 100.446 142.648 98.3571 144.899 96.1411Z" fill="#E6E6E6" stroke="#E6E6E6" stroke-width="0.216566" stroke-linejoin="round"/>
<path d="M206.771 82.8417V106.014H193.473V35.6304H211.409C223.252 35.7797 227.113 37.1777 232.23 40.5996C237.379 43.9896 241.002 51.4382 240.999 58.6658C240.991 74.7864 231.056 82.9659 212.432 82.8417H206.771ZM206.771 70.2809H213.493C220.924 70.3372 227.118 67.5403 227.171 59.0778C227.072 53.8835 224.086 48.9473 214.879 48.4077H206.771V70.2809Z" fill="#E6E6E6" stroke="#E6E6E6" stroke-width="0.216566"/>
<path d="M273.299 71.7586C265.213 69.5221 258.525 73.6756 257.957 81.4451V106.014H245.622V59.9132H256.441L257.877 66.9196C261.215 60.7641 265.534 58.3794 273.299 59.8899V71.7586Z" fill="#E6E6E6" stroke="#E6E6E6" stroke-width="0.216566"/>
<path d="M321.451 86.8269H287.293C287.3 91.6898 292.44 96.5572 298.98 96.5384C306.33 96.2893 309.173 93.5086 311.745 90.9365L319.106 98.635C316.204 101.395 310.677 106.595 300.033 107.342C284.143 107.169 274.553 96.6765 274.412 83.4279C274.806 68.7431 285.43 58.7742 299.033 58.5889C307.731 58.6448 316.123 63.8699 319.637 72.0906C321.654 76.7898 322.076 82.4715 321.451 86.8269ZM287.268 78.262H309.636C308.636 73.7956 304.479 69.2194 298.467 69.3204C292.364 69.4229 287.94 73.7125 287.268 78.262Z" fill="#E6E6E6" stroke="#E6E6E6" stroke-width="0.216566" stroke-linejoin="round"/>
<path d="M382.451 105.973V78.6665C382.117 72.6589 377.898 70.0637 374.596 70.3011C370.404 70.6024 367.129 73.7939 366.867 78.923V105.973H354.757V76.7773C354.033 72.4728 350.151 70.1151 346.926 70.3892C343.094 70.715 339.773 72.9236 339.432 77.3358V105.973H327.062V59.7666H338.253L339.482 65.6431C342.592 60.8445 345.831 58.5499 351.039 58.5073C358.347 58.4476 361.549 62.118 364.54 65.9882C368.36 60.6008 371.732 58.7932 378.962 58.5073C389.535 59.0308 395.005 67.4999 394.735 76.9226V105.973H382.451Z" fill="#E6E6E6" stroke="#E6E6E6" stroke-width="0.216566"/>
<path d="M401.401 59.8965H414.133V105.973H401.401V59.8965Z" fill="#E6E6E6" stroke="#E6E6E6" stroke-width="0.216566"/>
<path d="M193.259 113.654H207.221V169.666H236.754V182.389H193.259V113.654Z" fill="#E6E6E6" stroke="#E6E6E6" stroke-width="0.216566"/>
<path d="M330.557 182.389L329.166 176.67C324.786 181.947 319.619 183.913 313.239 183.638C307.45 183.389 301.537 180.399 297.205 174.928C293.552 170.448 291.726 165.003 291.726 158.594C291.726 152.253 294.726 145.983 299.955 141.048C304.047 137.463 309.74 135.362 315.273 135.402C320.571 135.441 325.091 136.952 329.039 141.99L330.297 136.047H341.71V182.389H330.557ZM317.355 146.966C310.257 147.434 305.49 151.756 305.065 159.31C305.053 162.896 306.233 166.457 309.125 168.895C311.721 170.896 314.783 171.924 317.8 171.775C324.566 171.307 329.075 166.075 329.15 159.817C329.242 152.696 324.862 147.4 317.355 146.966Z" fill="#E6E6E6" stroke="#E6E6E6" stroke-width="0.216566"/>
<path d="M402.388 136.133H415.481V158.469C415.481 161.536 415.182 165.366 417.206 167.986C419.265 170.493 421.923 171.594 424.231 171.667C427.877 171.783 429.968 170.691 431.508 169.42C434.649 166.979 435.001 162.33 435.017 158.779V136.133H447.849V163.018C447.849 168.97 445.436 173.886 441.153 178.161C436.983 181.848 431.299 183.927 424.201 183.606C417.111 183.285 412.633 181.253 408.648 177.556C405.316 174.466 402.388 169.127 402.388 161.932V136.133Z" fill="#E6E6E6" stroke="#E6E6E6" stroke-width="0.216566"/>
<path d="M408.011 37.6968C410.2 37.6968 412.061 38.4812 413.593 40.0501C415.162 41.5824 415.946 43.4431 415.946 45.6323C415.946 47.8213 415.162 49.7003 413.593 51.2692C412.061 52.8016 410.2 53.5677 408.011 53.5677C405.822 53.5677 403.943 52.8016 402.374 51.2692C400.841 49.7003 400.075 47.8213 400.075 45.6323C400.075 43.4431 400.841 41.5824 402.374 40.0501C403.943 38.4812 405.822 37.6968 408.011 37.6968Z" fill="#E6E6E6" stroke="#E6E6E6" stroke-width="0.216566"/>
<path d="M499.827 71.7586C491.741 69.5221 485.053 73.6756 484.485 81.4451V106.014H472.15V59.9132H482.969L484.405 66.9196C487.743 60.7641 492.062 58.3794 499.827 59.8899V71.7586Z" fill="#E6E6E6" stroke="#E6E6E6" stroke-width="0.216566"/>
<path d="M466.334 86.8269H432.176C432.183 91.6898 437.322 96.5572 443.863 96.5384C451.213 96.2893 454.056 93.5086 456.628 90.9365L463.989 98.635C461.087 101.395 455.56 106.595 444.916 107.342C429.026 107.169 419.436 96.6765 419.295 83.4279C419.689 68.7431 430.312 58.7742 443.916 58.5889C452.614 58.6448 461.006 63.8699 464.519 72.0906C466.536 76.7898 466.959 82.4715 466.334 86.8269ZM432.15 78.262H454.519C453.519 73.7956 449.362 69.2194 443.349 69.3204C437.246 69.4229 432.823 73.7125 432.15 78.262Z" fill="#E6E6E6" stroke="#E6E6E6" stroke-width="0.216566" stroke-linejoin="round"/>
<path d="M355.565 187.088C360.135 191.136 363.689 192.648 366.52 193.113C375.513 194.589 385.249 191.194 383.171 178.32C380.722 180.844 378.394 182.224 375.882 182.945C364.731 185.148 357.003 181.169 351.91 174.928C348.257 170.448 346.431 165.003 346.431 158.594C346.431 152.253 349.431 145.983 354.659 141.048C358.751 137.463 364.445 135.362 369.978 135.402C375.276 135.441 379.795 136.952 383.744 141.99L385.001 136.047H396.415V178.813C396.9 199.234 381.855 205.518 369.753 205.412C362.275 205.346 354.566 202.287 348.471 197.037L355.565 187.088ZM372.06 146.966C364.962 147.434 360.195 151.756 359.769 159.31C359.758 162.896 360.938 166.457 363.829 168.895C366.425 170.896 369.488 171.924 372.505 171.775C379.27 171.307 383.78 166.075 383.855 159.817C383.946 152.696 379.567 147.4 372.06 146.966Z" fill="#E6E6E6" stroke="#E6E6E6" stroke-width="0.216566"/>
<path d="M499.625 163.176H465.467C465.474 168.039 470.613 172.906 477.154 172.887C484.504 172.638 487.347 169.858 489.919 167.286L497.279 174.984C494.378 177.744 488.851 182.944 478.207 183.691C462.317 183.518 452.727 173.026 452.586 159.777C452.98 145.092 463.603 135.123 477.207 134.938C485.905 134.994 494.297 140.219 497.81 148.44C499.827 153.139 500.25 158.821 499.625 163.176ZM465.442 154.611H487.81C486.81 150.145 482.653 145.569 476.64 145.67C470.537 145.772 466.114 150.062 465.442 154.611Z" fill="#E6E6E6" stroke="#E6E6E6" stroke-width="0.216566" stroke-linejoin="round"/>
<path d="M286.741 163.176H252.582C252.59 168.039 257.729 172.906 264.27 172.887C271.619 172.638 274.463 169.858 277.035 167.286L284.395 174.984C281.494 177.744 275.967 182.944 265.323 183.691C249.432 183.518 239.843 173.026 239.702 159.777C240.096 145.092 250.719 135.123 264.323 134.938C273.021 134.994 281.413 140.219 284.926 148.44C286.943 153.139 287.366 158.821 286.741 163.176ZM252.557 154.611H274.926C273.925 150.145 269.769 145.569 263.756 145.67C257.653 145.772 253.23 150.062 252.557 154.611Z" fill="#E6E6E6" stroke="#E6E6E6" stroke-width="0.216566" stroke-linejoin="round"/>
</g>
<defs>
<clipPath id="clip0_330_4299">
<rect width="500" height="210.59" fill="white"/>
</clipPath>
</defs>
</svg>
