<?xml version="1.0" encoding="UTF-8"?>
<!DOCTYPE svg PUBLIC "-//W3C//DTD SVG 1.1//EN" "http://www.w3.org/Graphics/SVG/1.1/DTD/svg11.dtd">
<!-- Creator: CorelDRAW X5 -->
<svg xmlns="http://www.w3.org/2000/svg" xml:space="preserve" width="24.2992mm" height="31.4476mm" style="shape-rendering:geometricPrecision; text-rendering:geometricPrecision; image-rendering:optimizeQuality; fill-rule:evenodd; clip-rule:evenodd"
viewBox="0 0 2430 3145"
 xmlns:xlink="http://www.w3.org/1999/xlink"
 xmlns:svg="http://www.w3.org/2000/svg"
 version="1.1">
 <defs>
  <style type="text/css">
   <![CDATA[
    .fil4 {fill:#00B74F}
    .fil1 {fill:#1B1658}
    .fil5 {fill:#E3E3E3}
    .fil6 {fill:#E5002B}
    .fil0 {fill:white}
    .fil2 {fill:url(#id0)}
    .fil3 {fill:url(#id1)}
   ]]>
  </style>
  <linearGradient id="id0" gradientUnits="userSpaceOnUse" x1="877.53" y1="2074.28" x2="1551.76" y2="2074.28">
   <stop offset="0" style="stop-color:#2EE5FC"/>
   <stop offset="1" style="stop-color:#0573FF"/>
  </linearGradient>
  <linearGradient id="id1" gradientUnits="userSpaceOnUse" xlink:href="#id0" x1="1503.75" y1="1867.09" x2="926.17" y2="293.37">
  </linearGradient>
 </defs>
 <g id="Layer_x0020_1">
  <metadata id="CorelCorpID_0Corel-Layer"/>
 </g>
 <g id="svg2">
  <metadata id="CorelCorpID_1Corel-Layer"/>
  <polygon class="fil0" points="-1,3145 2432,3145 2432,0 -1,0 "/>
  <path class="fil1" d="M396 2877c-25,-9 -45,-21 -58,-35 -3,-3 -3,-6 -1,-9l40 -45c2,-3 4,-3 8,-1 31,25 62,36 92,36 36,0 58,-16 58,-42 0,-23 -14,-34 -55,-40l-19 -3c-74,-11 -112,-46 -112,-106 0,-33 11,-58 34,-79 23,-20 53,-30 91,-30 48,0 88,13 120,37 3,2 4,5 1,8l-31 47c-2,3 -4,3 -8,1 -28,-18 -55,-27 -82,-27 -31,0 -47,16 -47,38 0,21 16,33 55,39l19 3c74,10 111,46 111,107 0,67 -50,111 -139,111 -26,1 -53,-4 -77,-13z"/>
  <path class="fil1" d="M654 2537c0,-4 2,-5 5,-5l226 0c4,0 5,1 5,5l0 55c0,4 -1,5 -5,5l-152 0c-2,0 -3,1 -3,3l0 70c0,2 1,3 3,3l127 0c4,0 5,1 5,5l0 55c0,4 -1,5 -5,5l-127 0c-2,0 -3,1 -3,3l0 74c0,2 1,3 3,3l152 0c4,0 5,1 5,5l0 55c0,4 -1,5 -5,5l-226 0c-4,0 -5,-1 -5,-5l0 -343z"/>
  <path class="fil1" d="M1135 2885c-4,0 -6,-2 -8,-5l-61 -130 -47 0c-2,0 -3,1 -3,3l0 126c0,4 -2,5 -5,5l-66 0c-4,0 -5,-2 -5,-5l0 -343c0,-4 2,-5 5,-5l141 0c36,0 65,11 87,31 23,20 33,46 33,79 0,45 -23,81 -63,98l70 139c1,3 0,6 -4,6l-74 0zm-53 -199c29,0 48,-17 48,-44 0,-26 -19,-43 -48,-43l-62 0c-2,0 -3,1 -3,3l0 82c0,2 1,3 3,3l62 0 0 -1z"/>
  <path class="fil1" d="M1252 2537c0,-4 2,-5 5,-5l66 0c4,0 5,1 5,5l0 343c0,4 -1,5 -5,5l-66 0c-4,0 -5,-1 -5,-5l0 -343z"/>
  <path class="fil1" d="M1389 2537c0,-4 2,-5 5,-5l226 0c4,0 5,1 5,5l0 55c0,4 -2,5 -5,5l-152 0c-2,0 -3,1 -3,3l0 70c0,2 1,3 3,3l127 0c4,0 5,1 5,5l0 55c0,4 -1,5 -5,5l-127 0c-2,0 -3,1 -3,3l0 74c0,2 1,3 3,3l152 0c4,0 5,1 5,5l0 55c0,4 -2,5 -5,5l-226 0c-4,0 -5,-1 -5,-5l0 -343z"/>
  <path class="fil1" d="M1881 2537c1,-4 3,-5 7,-5l65 0c4,0 6,1 7,5l120 343c1,4 0,5 -4,5l-67 0c-4,0 -6,-1 -7,-5l-20 -62 -124 0 -20 62c-1,4 -3,5 -7,5l-68 0c-4,0 -4,-1 -4,-5l121 -343zm-2 216l82 0 -40 -124 -1 0 -40 124z"/>
  <polygon class="fil1" points="1215,2345 878,1803 356,1803 "/>
  <polygon class="fil1" points="2074,1803 1552,1803 1215,2345 "/>
  <polygon class="fil1" points="1215,924 1215,924 878,1803 878,1803 1215,1803 1215,1803 1215,1803 1215,1803 1552,1803 1552,1803 "/>
  <polygon class="fil2" points="1215,1803 1215,1803 1215,1803 878,1803 1215,2345 1215,2345 1215,2345 1552,1803 1552,1803 "/>
  <polygon class="fil3" points="1452,357 977,357 356,1803 878,1803 1215,924 1361,1305 1177,1305 1054,1626 1484,1626 1552,1803 2074,1803 "/>
  <polygon class="fil4" points="-2,3145 810,3145 810,3060 -2,3060 "/>
  <polygon class="fil5" points="809,3145 1621,3145 1621,3060 809,3060 "/>
  <polygon class="fil6" points="1620,3145 2432,3145 2432,3060 1620,3060 "/>
 </g>
</svg>
