<svg width="200" height="230" viewBox="0 0 200 230" fill="none" xmlns="http://www.w3.org/2000/svg">
<path fill-rule="evenodd" clip-rule="evenodd" d="M0 222.625H66.7355V229.551H0V222.625Z" fill="#00B74F"/>
<path fill-rule="evenodd" clip-rule="evenodd" d="M66.6323 222.625H133.368V229.551H66.6323V222.625Z" fill="#E3E3E3"/>
<path fill-rule="evenodd" clip-rule="evenodd" d="M133.264 222.625H200V229.551H133.264V222.625Z" fill="#E5002B"/>
<path d="M28.4312 204.635C28.2761 204.48 28.1727 204.118 28.3795 203.912L31.6361 200.19C31.7912 199.983 32.0497 199.983 32.2564 200.138C34.1691 201.689 36.7537 203.085 39.8553 203.085C42.8535 203.085 44.5593 201.689 44.5593 199.621C44.5593 197.915 43.5255 196.881 40.0621 196.365L38.5113 196.158C32.6183 195.331 29.3616 192.591 29.3616 187.525C29.3616 182.201 33.342 178.686 39.5968 178.686C43.3704 178.686 46.9889 179.823 49.4185 181.684C49.6769 181.839 49.6769 182.046 49.4702 182.304L46.8855 186.181C46.7304 186.388 46.5237 186.439 46.3169 186.336C44.1458 184.837 41.9747 184.165 39.5968 184.165C37.0639 184.165 35.7199 185.509 35.7199 187.318C35.7199 189.024 36.9088 190.058 40.2171 190.472L41.7679 190.678C47.7643 191.505 50.9176 194.193 50.9176 199.466C50.9176 204.687 47.0406 208.616 39.5451 208.616C35.0478 208.564 30.654 206.806 28.4312 204.635Z" fill="#CBCBCB"/>
<path d="M54.2778 179.616C54.2778 179.358 54.4329 179.203 54.6914 179.203H73.2491C73.5076 179.203 73.6627 179.358 73.6627 179.616V184.165C73.6627 184.424 73.5076 184.579 73.2491 184.579H60.7394C60.5844 184.579 60.481 184.63 60.481 184.837V190.575C60.481 190.73 60.5327 190.834 60.7394 190.834H71.1297C71.3882 190.834 71.5433 190.989 71.5433 191.247V195.744C71.5433 196.003 71.3882 196.158 71.1297 196.158H60.7394C60.5844 196.158 60.481 196.21 60.481 196.416V202.413C60.481 202.568 60.5327 202.671 60.7394 202.671H73.1974C73.4559 202.671 73.611 202.826 73.611 203.085V207.634C73.611 207.892 73.4559 208.047 73.1974 208.047H54.6914C54.4329 208.047 54.2778 207.892 54.2778 207.634V179.616Z" fill="#CBCBCB"/>
<path d="M93.4091 208.047C93.0472 208.047 92.8921 207.892 92.7888 207.634L87.7746 197.037H83.8976C83.7425 197.037 83.6391 197.088 83.6391 197.295V207.634C83.6391 207.892 83.484 208.047 83.2256 208.047H77.7978C77.5394 208.047 77.3843 207.892 77.3843 207.634V179.513C77.3843 179.254 77.5394 179.099 77.7978 179.099H89.3253C95.2183 179.099 99.147 182.821 99.147 188.094C99.147 191.816 97.1827 194.71 94.0294 196.106L99.7156 207.479C99.8707 207.737 99.7156 207.995 99.4571 207.995H93.4091V208.047ZM92.9955 188.197C92.9955 186.026 91.4447 184.63 89.0669 184.63H83.9493C83.7942 184.63 83.6908 184.682 83.6908 184.889V191.557C83.6908 191.712 83.7425 191.816 83.9493 191.816H89.0669C91.4447 191.764 92.9955 190.368 92.9955 188.197Z" fill="#CBCBCB"/>
<path d="M103.127 179.616C103.127 179.358 103.283 179.203 103.541 179.203H108.969C109.227 179.203 109.382 179.358 109.382 179.616V207.737C109.382 207.996 109.227 208.151 108.969 208.151H103.644C103.386 208.151 103.231 207.996 103.231 207.737V179.616H103.127Z" fill="#CBCBCB"/>
<path d="M114.086 179.616C114.086 179.358 114.242 179.203 114.5 179.203H133.058C133.316 179.203 133.471 179.358 133.471 179.616V184.165C133.471 184.424 133.316 184.579 133.058 184.579H120.6C120.445 184.579 120.341 184.63 120.341 184.837V190.575C120.341 190.73 120.393 190.834 120.6 190.834H130.99C131.248 190.834 131.404 190.989 131.404 191.247V195.744C131.404 196.003 131.248 196.158 130.99 196.158H120.6C120.445 196.158 120.341 196.21 120.341 196.416V202.413C120.341 202.568 120.393 202.671 120.6 202.671H133.058C133.316 202.671 133.471 202.826 133.471 203.085V207.634C133.471 207.892 133.316 208.047 133.058 208.047H114.5C114.242 208.047 114.086 207.892 114.086 207.634V179.616Z" fill="#CBCBCB"/>
<path d="M154.252 179.616C154.303 179.358 154.51 179.203 154.82 179.203H160.145C160.403 179.203 160.662 179.358 160.713 179.616L170.483 207.737C170.535 207.996 170.483 208.151 170.225 208.151H164.694C164.435 208.151 164.177 207.996 164.125 207.737L162.419 202.671H152.287L150.685 207.737C150.633 207.996 150.426 208.151 150.116 208.151H144.585C144.327 208.151 144.223 207.996 144.327 207.737L154.252 179.616ZM160.713 197.295L157.405 187.163H157.25L153.942 197.295H160.713Z" fill="#CBCBCB"/>
<path d="M99.9741 163.85L29.5684 119.187H72.6802L99.9741 163.85Z" fill="#CBCBCB"/>
<path d="M99.9741 163.85L170.432 119.187H127.268L99.9741 163.85Z" fill="#CBCBCB"/>
<path d="M99.974 47.127L72.6802 119.187H127.268L99.974 47.127Z" fill="#CBCBCB"/>
<path d="M72.6802 119.187L99.974 163.85L127.268 119.187H72.6802Z" fill="#909FA0"/>
<path d="M99.9741 47.1269L111.76 78.2461H96.8725L86.7407 105.075H121.892L127.216 119.239H170.38L119.411 0.448242H80.5376L29.5684 119.187H72.7319L99.9741 47.1269Z" fill="#E6E6E6"/>
</svg>
