<svg width="500" height="446" viewBox="0 0 500 446" fill="none" xmlns="http://www.w3.org/2000/svg">
<path d="M0 424.628L3.7155 416.136C7.96178 419.321 13.8004 421.444 19.6391 421.444C26.5393 421.444 29.1932 419.321 29.1932 416.136C29.1932 407.113 1.06157 413.482 1.06157 395.435C1.06157 386.943 7.96178 380.042 21.7622 380.042C28.1316 380.042 33.9703 381.635 38.7473 384.289L35.0318 392.781C30.2548 390.127 26.0085 389.066 21.7622 389.066C14.862 389.066 12.7389 391.72 12.7389 394.374C12.7389 403.397 40.8705 397.028 40.8705 415.074C40.8705 423.036 33.9703 429.936 20.1699 429.936C12.2081 430.467 4.24628 428.344 0 424.628Z" fill="#E6E6E6"/>
<path d="M84.9255 392.251V429.405H74.8406V425.159C72.1867 428.344 67.9404 429.936 63.1633 429.936C53.6092 429.936 47.2397 424.628 47.2397 412.951V391.72H57.8555V411.359C57.8555 417.728 60.5094 420.382 65.2865 420.382C70.0635 420.382 73.779 417.197 73.779 410.297V391.72H84.9255V392.251Z" fill="#E6E6E6"/>
<path d="M135.881 410.828C135.881 422.505 127.919 429.936 117.304 429.936C112.527 429.936 108.811 428.344 106.157 425.159V442.675H95.5415V391.72H106.157V395.966C108.811 392.781 113.057 391.189 117.835 391.189C127.919 391.72 135.881 399.151 135.881 410.828ZM124.735 410.828C124.735 404.459 120.488 400.212 115.181 400.212C109.873 400.212 105.626 403.928 105.626 410.828C105.626 417.197 109.873 421.444 115.181 421.444C121.019 421.444 124.735 417.197 124.735 410.828Z" fill="#E6E6E6"/>
<path d="M171.975 417.728L177.813 424.098C174.098 427.813 169.321 429.936 162.42 429.936C149.682 429.936 141.189 421.974 141.189 410.828C141.189 399.682 149.682 391.72 161.359 391.72C171.975 391.72 180.467 398.62 180.467 410.828L152.866 416.136C154.459 419.851 158.174 421.444 162.951 421.444C166.667 421.444 169.321 420.382 171.975 417.728ZM151.805 409.766L169.851 406.051C168.79 402.335 165.605 399.682 160.828 399.682C155.52 399.682 151.805 403.397 151.805 409.766Z" fill="#E6E6E6"/>
<path d="M211.253 391.72V401.805C210.191 401.805 209.66 401.805 208.599 401.805C202.76 401.805 198.514 404.989 198.514 412.42V429.936H187.898V392.781H198.514V397.558C200.637 393.312 205.414 391.72 211.253 391.72Z" fill="#E6E6E6"/>
<path d="M234.077 381.104H245.223V420.382H269.639V429.405H234.077V381.104Z" fill="#E6E6E6"/>
<path d="M304.14 417.728L309.979 424.098C306.263 427.813 301.486 429.936 294.586 429.936C281.847 429.936 273.354 421.974 273.354 410.828C273.354 399.682 281.847 391.72 293.524 391.72C304.14 391.72 312.633 398.62 312.633 410.828L285.032 416.136C286.624 419.851 290.34 421.444 295.117 421.444C298.301 421.444 301.486 420.382 304.14 417.728ZM283.439 409.766L301.486 406.051C300.425 402.335 297.24 399.682 292.463 399.682C287.686 399.682 283.97 403.397 283.439 409.766Z" fill="#E6E6E6"/>
<path d="M357.749 392.251V429.405H347.134V425.159C344.48 428.344 340.233 429.936 335.456 429.936C324.841 429.936 316.879 422.505 316.879 410.828C316.879 399.151 324.841 391.72 335.456 391.72C340.233 391.72 343.949 393.312 346.603 396.497V392.781H357.749V392.251ZM347.134 410.828C347.134 404.459 342.887 400.212 337.58 400.212C332.272 400.212 328.025 403.928 328.025 410.828C328.025 417.197 332.272 421.444 337.58 421.444C342.887 421.444 347.134 417.197 347.134 410.828Z" fill="#E6E6E6"/>
<path d="M406.051 392.251V423.567C406.051 437.367 398.62 443.737 384.82 443.737C377.92 443.737 371.019 442.144 366.242 438.429L370.489 430.467C373.673 433.121 378.981 434.713 383.758 434.713C391.189 434.713 394.905 430.998 394.905 424.628V423.036C392.251 426.221 388.004 427.813 383.227 427.813C372.612 427.813 364.65 420.913 364.65 409.766C364.65 398.62 373.142 391.72 383.227 391.72C388.535 391.72 392.782 393.312 395.435 397.028V392.251H406.051ZM395.435 409.766C395.435 404.459 391.189 400.743 385.881 400.743C380.043 400.743 375.796 404.459 375.796 409.766C375.796 415.074 380.043 418.79 385.881 418.79C391.189 418.79 395.435 415.074 395.435 409.766Z" fill="#E6E6E6"/>
<path d="M453.291 392.251V429.405H443.206V425.159C440.552 428.344 436.306 429.936 431.529 429.936C421.974 429.936 415.605 424.628 415.605 412.951V391.72H426.221V411.359C426.221 417.728 428.875 420.382 433.652 420.382C438.429 420.382 442.144 417.197 442.144 410.297V391.72H453.291V392.251Z" fill="#E6E6E6"/>
<path d="M491.507 417.728L497.346 424.098C493.63 427.813 488.853 429.936 481.953 429.936C469.214 429.936 460.722 421.974 460.722 410.828C460.722 399.682 469.214 391.72 480.892 391.72C491.507 391.72 500 398.62 500 410.828L472.399 416.136C473.991 419.851 477.707 421.444 482.484 421.444C486.199 421.444 488.853 420.382 491.507 417.728ZM471.337 409.766L489.384 406.051C488.322 402.335 485.138 399.682 480.361 399.682C475.053 399.682 471.337 403.397 471.337 409.766Z" fill="#E6E6E6"/>
<path d="M234.607 333.333C234.607 337.049 236.73 340.764 241.508 342.887L247.877 346.603C250 347.665 252.123 349.788 252.123 352.442C252.123 355.626 249.469 358.28 245.754 358.28C242.038 358.28 238.323 355.096 236.2 350.318L235.669 349.257L233.546 350.318L234.607 358.811C237.261 361.465 242.038 363.057 245.754 363.057C254.246 363.057 258.493 356.688 258.493 350.849C258.493 346.603 256.37 342.887 251.592 340.764L245.223 337.049C242.569 335.456 240.977 334.395 240.977 331.741C240.977 329.087 243.631 326.433 246.815 326.433C250.531 326.433 252.654 329.618 254.246 332.272L254.777 333.333L256.37 332.803L255.839 324.841C253.185 323.248 250 322.187 246.285 322.187C238.854 322.718 234.607 328.025 234.607 333.333ZM30.7856 342.887C30.7856 356.688 41.9321 363.057 52.0171 363.057C57.3249 363.057 62.102 361.996 66.3483 358.811L66.8791 349.788L65.2867 349.257V350.318C62.102 355.626 57.8557 358.811 53.0786 358.811C46.1784 358.811 39.2782 352.972 39.2782 342.357C39.2782 334.395 44.0553 326.433 53.0786 326.433C57.8557 326.433 62.102 329.618 64.7559 334.926L65.2867 335.456L66.8791 334.926L66.3483 325.902C61.5712 323.779 56.7941 322.187 52.0171 322.187C38.2166 322.718 30.7856 332.803 30.7856 342.887ZM295.648 323.248V325.372C296.709 325.902 297.24 326.964 297.24 328.556V363.057H304.671V323.779L295.648 323.248ZM283.97 323.248V325.372C285.032 325.902 285.563 326.964 285.563 328.556V349.788C285.563 355.096 282.378 358.811 278.132 358.811C272.824 358.811 269.639 355.095 269.639 348.726V323.248H260.616V325.372C261.677 325.902 262.208 326.964 262.208 328.556V348.726C262.208 357.749 267.516 363.588 276.539 363.588C285.032 363.588 290.871 358.28 290.871 349.788V323.779L283.97 323.248ZM185.244 323.248V331.21H187.367V330.679C187.898 328.556 189.491 328.025 191.083 328.025H196.922V363.057H204.353V328.025H210.191C211.784 328.025 212.845 328.556 214.437 330.679V331.21H216.561V323.248H185.244ZM171.975 323.248V325.372C173.036 325.902 173.567 326.964 173.567 328.556V363.057H180.998V323.779L171.975 323.248ZM133.758 323.248V325.372C134.82 325.902 135.35 326.964 135.35 328.556V363.057H147.558C162.42 363.057 170.382 352.972 170.382 342.887C170.382 333.333 163.482 323.779 147.558 323.779L133.758 323.248ZM144.905 327.495C158.705 327.495 161.89 335.456 161.89 342.357C161.89 351.911 156.051 357.749 145.966 357.749C144.905 357.749 143.843 357.749 142.781 357.219V327.495C143.312 328.025 143.843 327.495 144.905 327.495ZM105.626 323.248V325.372C106.688 325.902 107.219 326.964 107.219 328.556V363.057H129.512L131.104 355.096L128.981 354.565L128.45 355.096C127.389 357.219 126.327 358.28 119.958 358.28C117.834 358.28 115.711 358.28 114.119 357.749V343.418H124.735V338.641H114.119V328.025H122.081C124.204 328.025 125.265 329.087 126.327 330.679L126.858 331.21H128.981V323.248H105.626ZM72.1869 362.527H79.6179V345.011H81.2103C83.3334 345.011 84.395 346.072 85.9873 349.257L90.7644 357.749C92.3568 360.403 95.5415 361.996 99.7878 361.996H103.503L104.034 359.873C101.38 358.811 99.257 357.749 98.1954 356.157L92.8876 346.603C92.3568 345.541 91.2952 343.949 89.7028 343.418C95.5415 341.295 97.6646 337.049 97.6646 333.333C97.6646 326.964 92.3568 323.248 83.3334 323.248H70.5946V325.372C71.6561 325.902 72.1869 326.964 72.1869 328.556C72.1869 328.556 72.1869 362.527 72.1869 362.527ZM82.8026 328.025C85.9873 328.025 90.2336 329.087 90.2336 333.864C90.2336 338.11 87.5797 340.764 82.8026 340.764H79.6179V328.025C80.6795 328.025 81.7411 328.025 82.8026 328.025ZM310.51 333.333C310.51 337.049 312.633 340.764 317.41 342.887L323.779 346.603C325.902 347.665 328.026 349.788 328.026 352.442C328.026 355.626 325.372 358.28 321.656 358.28C317.941 358.28 314.225 355.096 312.102 350.318L311.571 349.257L309.979 350.318L311.04 358.811C313.694 361.465 318.471 363.057 322.187 363.057C330.679 363.057 334.926 356.688 334.926 350.849C334.926 346.603 332.803 342.887 328.026 340.764L321.656 337.049C319.002 335.456 317.41 334.395 317.41 331.741C317.41 329.087 320.064 326.433 323.249 326.433C326.964 326.433 329.087 329.618 330.679 332.272L331.21 333.333L332.803 332.803L332.272 324.841C329.618 323.248 326.433 322.187 322.718 322.187C314.756 322.718 310.51 328.025 310.51 333.333ZM338.11 333.333C338.11 337.049 340.234 340.764 345.011 342.887L351.38 346.603C353.503 347.665 355.626 349.788 355.626 352.442C355.626 355.626 352.973 358.28 349.257 358.28C345.542 358.28 341.826 355.096 339.703 350.318V349.788L337.58 350.318L338.641 358.811C341.295 361.465 346.072 363.057 349.788 363.057C358.28 363.057 362.527 356.688 362.527 350.849C362.527 346.603 360.403 342.887 355.626 340.764L349.257 337.049C346.603 335.456 345.011 334.395 345.011 331.741C345.011 329.087 347.665 326.433 350.849 326.433C354.565 326.433 356.688 329.618 358.28 332.272L358.811 333.333L360.403 332.803L359.873 324.841C357.219 323.248 354.034 322.187 350.319 322.187C342.357 322.718 338.11 328.025 338.11 333.333ZM365.711 323.248V325.372C366.773 325.902 367.304 326.964 367.304 328.556V363.057H389.597L391.189 355.096L389.066 354.565L388.535 355.096C387.474 357.219 386.412 358.28 380.043 358.28C377.919 358.28 375.796 358.28 374.204 357.749V343.418H384.82V338.641H374.204V328.025H382.166C384.289 328.025 385.35 329.087 386.412 330.679L386.943 331.21H389.066V323.248H365.711ZM476.646 364.65C477.707 365.18 478.238 365.18 478.238 365.18C478.769 365.18 478.769 365.18 478.769 364.65V364.119C475.053 359.873 469.745 355.096 463.907 349.788C459.66 349.257 454.353 348.726 450.106 348.726C447.452 348.726 445.329 348.726 443.737 349.257C442.675 349.257 442.675 349.257 442.675 348.195C442.675 342.357 442.144 337.58 441.083 332.272C448.514 338.11 455.414 342.887 463.376 350.318C471.338 351.911 474.522 352.442 480.361 354.034C481.423 354.565 481.953 354.565 481.953 354.565C482.484 354.565 482.484 354.565 482.484 354.034V353.503C466.03 332.272 449.575 319.002 430.998 305.732C430.467 305.732 430.467 305.202 430.467 305.202C429.936 305.202 429.936 305.202 429.936 305.732V306.263C435.244 313.163 438.96 321.656 441.083 331.741C425.69 321.125 412.42 313.163 398.62 306.794H398.089C397.558 306.794 397.558 307.325 397.558 307.325V307.856C409.767 319.002 420.382 339.172 425.159 361.465C425.159 361.996 425.69 362.527 426.221 362.527C429.936 361.996 436.306 360.934 444.798 360.934C453.822 360.403 464.437 361.465 476.646 364.65Z" fill="#E6E6E6"/>
<path d="M359.995 30.2621C343.585 11.6901 203.822 -6.1679 184.89 4.08718C165.957 14.3423 97.0347 152.337 102.387 172.167C107.739 191.997 215.05 281.777 234.213 286.415C253.377 291.053 387.604 221.593 396.928 208.21C406.251 194.826 376.418 48.875 360.001 30.3029" fill="#E6E6E6"/>
<path d="M356.88 72.2686C354.526 72.2686 352.226 72.9664 350.269 74.2737C348.312 75.5811 346.786 77.4394 345.886 79.6135C344.985 81.7877 344.749 84.1802 345.207 86.4886C345.666 88.7969 346.799 90.9175 348.462 92.5821C350.126 94.2467 352.246 95.3807 354.554 95.8406C356.862 96.3006 359.255 96.0659 361.429 95.1662C363.604 94.2665 365.463 92.7422 366.772 90.786C368.08 88.8298 368.779 86.5296 368.781 84.1762C368.779 81.0198 367.525 77.9931 365.293 75.7606C363.062 73.5281 360.036 72.2722 356.88 72.2686Z" fill="#263238"/>
<path d="M337.22 90.9766C333.308 91.1434 329.478 92.1451 325.986 93.9144C325.16 94.2426 324.342 94.5872 323.531 94.948L323.17 95.1044C320.52 96.3871 317.722 97.3395 314.84 97.9402C288.27 102.157 284.51 105.876 281.517 108.869C280.15 110.393 278.365 111.481 276.383 111.997C273.969 112.731 271.296 113.309 268.46 113.914C261.542 115.108 254.832 117.291 248.535 120.395C246.674 121.266 244.731 121.949 242.734 122.435C241.343 122.813 239.966 123.241 238.606 123.721L236.73 124.401C233.528 126.075 229.923 126.823 226.319 126.563C222.716 126.302 219.256 125.042 216.328 122.925C213.973 121.996 211.489 121.436 208.963 121.266C207.631 121.159 206.31 120.932 205.019 120.586C204.944 120.545 204.903 120.497 204.944 120.463C205.308 120.288 205.686 120.142 206.073 120.028C206.623 119.933 207.146 119.721 207.607 119.406C208.068 119.092 208.456 118.682 208.746 118.206C208.868 117.894 208.92 117.559 208.898 117.225C208.875 116.891 208.779 116.567 208.616 116.274C207.968 114.9 207.644 113.394 207.671 111.874C208.462 111.462 209.072 110.771 209.385 109.936C209.451 109.68 209.46 109.413 209.411 109.153C209.362 108.893 209.255 108.647 209.099 108.433C208.604 107.769 208.063 107.139 207.481 106.55C206.949 106.078 206.511 105.51 206.189 104.877C206.189 104.795 206.189 104.7 206.25 104.414C206.396 103.922 206.417 103.4 206.311 102.898C206.077 102.159 205.751 101.453 205.339 100.796C204.974 100.232 204.698 99.6154 204.523 98.9671C204.393 96.5325 201.578 94.3428 197.341 93.4043C194.435 92.5462 191.328 92.6656 188.496 93.7442C185.664 94.8229 183.265 96.8011 181.666 99.3751C180.216 102.185 179.672 105.376 180.109 108.508C180.546 111.64 181.943 114.56 184.108 116.866L184.386 117.254C187.107 121.096 187.345 123.374 185.243 125.224C182.284 127.666 179.815 130.648 177.967 134.01C175.519 138.342 173.207 143.605 171.166 148.291C169.623 152.236 167.767 156.052 165.617 159.702C164.169 162.135 163.072 164.761 162.36 167.502C162.121 168.26 161.874 169.014 161.619 169.767C160.752 172.68 160.1 175.653 159.667 178.662C159.346 181.929 158.513 185.126 157.198 188.135C155.009 190.185 152.163 191.39 149.167 191.535C147.533 191.848 146.018 192.611 144.794 193.738L144.57 193.895C144.141 194.194 143.693 194.513 143.21 194.833C142.742 195.131 142.256 195.399 141.754 195.636C140.972 195.982 140.243 196.44 139.592 196.996C139.138 197.446 138.877 198.056 138.864 198.696C138.645 199.047 138.56 199.465 138.622 199.874C138.684 200.283 138.891 200.656 139.204 200.926C139.513 201.16 139.874 201.318 140.255 201.387C140.637 201.455 141.029 201.433 141.401 201.321C141.499 201.699 141.721 202.034 142.032 202.272C142.342 202.509 142.723 202.637 143.115 202.633C144.03 202.533 144.918 202.253 145.726 201.81C146.864 201.257 148.053 200.815 149.276 200.491C150.316 200.239 151.431 200.076 152.513 199.913C155.352 199.786 158.091 198.825 160.388 197.152C161.828 195.697 163.016 194.012 163.903 192.167C164.25 191.542 164.584 190.95 164.91 190.413C169.578 183.553 172.905 175.872 174.716 167.774C175.454 164.97 177.135 162.506 179.477 160.797C180.503 159.804 181.768 158.566 183.149 157.057C184.359 155.681 185.483 154.232 186.515 152.718C188.079 150.494 189.317 148.746 190.765 148.692C192.962 149.019 195.131 149.512 197.253 150.168C206.097 152.745 215.187 154.388 224.373 155.071C228.434 155.324 232.351 156.67 235.709 158.967C236.947 159.688 238.232 160.43 239.688 161.137C247.312 164.38 255.237 166.867 263.347 168.563C265.554 168.774 267.776 168.774 269.984 168.563C271.505 168.408 273.039 168.408 274.56 168.563C274.785 168.672 275.016 168.808 275.315 168.991C276.116 169.491 276.969 169.901 277.859 170.215C280.848 170.966 283.988 170.855 286.917 169.896H287.005C288.876 169.346 290.825 169.116 292.772 169.216C293.926 169.549 295.041 170.005 296.098 170.576C296.982 171.004 297.9 171.446 298.675 171.746C300.375 172.519 302.212 172.949 304.079 173.011C305.947 173.073 307.808 172.765 309.556 172.106C310.207 171.782 310.779 171.319 311.232 170.751C311.686 170.182 312.009 169.521 312.181 168.815C312.328 168.222 312.343 167.604 312.226 167.005C312.108 166.406 311.861 165.84 311.501 165.346C309.059 161.796 301.517 160.634 300.028 160.443C298.487 160.211 296.962 159.877 295.465 159.444H295.377C294.118 159.076 292.834 158.804 291.534 158.627C290.915 158.583 290.294 158.671 289.712 158.886C288.877 159.203 287.955 159.203 287.121 158.886C286.571 158.659 286.054 158.36 285.584 157.995C284.551 157.226 283.403 156.622 282.184 156.207C280.979 155.876 279.845 155.328 278.838 154.588L278.335 154.248C275.845 152.569 273.084 151.331 270.174 150.589L270.038 150.549C269.573 150.437 269.118 150.287 268.678 150.1C263.299 147.216 261.504 145.135 261.517 144.659C261.565 141.728 262.626 140.933 265.883 139.219C270.673 136.175 275.139 132.65 279.212 128.699C281.962 125.922 285.038 123.487 288.372 121.449C292.802 120.798 296.959 118.912 300.368 116.009C302.974 113.772 305.829 111.841 308.876 110.256C315.792 106.441 316.417 106.414 317.036 106.393C317.315 106.39 317.592 106.363 317.866 106.312H317.913C318.204 106.585 318.568 106.767 318.961 106.835C319.433 106.924 319.917 106.924 320.389 106.835H320.477C320.628 106.811 320.78 106.795 320.933 106.788C321.03 106.807 321.125 106.841 321.212 106.89C321.749 107.197 322.384 107.29 322.987 107.148C323.558 106.931 324.055 106.556 324.421 106.067L324.755 105.713L325.04 105.672C325.578 105.65 326.098 105.478 326.543 105.176C326.775 104.991 326.965 104.759 327.101 104.495C327.237 104.231 327.316 103.942 327.332 103.646C327.332 103.415 327.373 103.401 327.4 103.367C328.019 102.626 329.678 102.51 331.167 102.422H331.235C331.335 102.449 331.433 102.483 331.528 102.524C331.815 102.684 332.131 102.786 332.458 102.823C332.785 102.861 333.116 102.833 333.432 102.741C333.863 102.564 334.228 102.254 334.472 101.857L334.581 101.708H334.826C335.098 101.702 335.368 101.658 335.629 101.578C335.909 101.451 336.158 101.262 336.358 101.027C336.558 100.792 336.704 100.516 336.785 100.218L336.859 100.028L337.193 99.892C337.623 99.7971 338.015 99.5753 338.318 99.2553C338.621 98.9352 338.822 98.5316 338.893 98.0966C338.888 97.9297 338.919 97.7637 338.982 97.6092C339.045 97.4546 339.14 97.3149 339.26 97.199C339.462 97.0027 339.627 96.7725 339.75 96.5189C339.976 95.8522 340.068 95.1473 340.022 94.4448V94.3496V93.2751C340.029 93.0493 339.989 92.8245 339.905 92.6149C339.821 92.4053 339.694 92.2156 339.532 92.0578C338.885 91.4765 338.081 91.1002 337.22 90.9766Z" fill="#263238"/>
</svg>
