<?xml version="1.0" encoding="UTF-8" standalone="no"?>
<!-- Generator: Adobe Illustrator 27.0.0, SVG Export Plug-In . SVG Version: 6.00 Build 0)  -->

<svg
   version="1.1"
   id="CSSL"
   x="0px"
   y="0px"
   viewBox="0 0 94.2 83.9"
   style="enable-background:new 0 0 94.2 83.9;"
   xml:space="preserve"
   sodipodi:docname="logo-cssl-white-compact.svg"
   inkscape:version="1.2 (dc2aedaf03, 2022-05-15)"
   xmlns:inkscape="http://www.inkscape.org/namespaces/inkscape"
   xmlns:sodipodi="http://sodipodi.sourceforge.net/DTD/sodipodi-0.dtd"
   xmlns="http://www.w3.org/2000/svg"
   xmlns:svg="http://www.w3.org/2000/svg"><defs
   id="defs1315" /><sodipodi:namedview
   id="namedview1313"
   pagecolor="#505050"
   bordercolor="#eeeeee"
   borderopacity="1"
   inkscape:showpageshadow="0"
   inkscape:pageopacity="0"
   inkscape:pagecheckerboard="0"
   inkscape:deskcolor="#505050"
   showgrid="false"
   inkscape:zoom="9.702026"
   inkscape:cx="55.297728"
   inkscape:cy="42.001536"
   inkscape:window-width="1920"
   inkscape:window-height="1001"
   inkscape:window-x="-9"
   inkscape:window-y="-9"
   inkscape:window-maximized="1"
   inkscape:current-layer="CSSL" />
<style
   type="text/css"
   id="style1274">
	.st0{fill:#003074;}
</style>
<g
   id="g1310">
	<g
   id="g1278"
   transform="translate(96.268552,39.991647)">
		
	</g>
	<g
   id="g1308">
		<g
   id="g1304">
			<g
   id="g1302">
				<path
   class="st0"
   d="M0,80l0.7-1.6c0.8,0.6,1.9,1,3,1c1.3,0,1.8-0.4,1.8-1c0-1.7-5.3-0.5-5.3-3.9c0-1.6,1.3-2.9,3.9-2.9      c1.2,0,2.3,0.3,3.2,0.8L6.6,74c-0.9-0.5-1.7-0.7-2.5-0.7c-1.3,0-1.7,0.5-1.7,1c0,1.7,5.3,0.5,5.3,3.9c0,1.5-1.3,2.8-3.9,2.8      C2.3,81.1,0.8,80.7,0,80z"
   id="path1280" />
				<path
   class="st0"
   d="M16,73.9v7h-1.9v-0.8c-0.5,0.6-1.3,0.9-2.2,0.9c-1.8,0-3-1-3-3.2v-4h2v3.7c0,1.2,0.5,1.7,1.4,1.7      s1.6-0.6,1.6-1.9v-3.5H16V73.9z"
   id="path1282" />
				<path
   class="st0"
   d="M25.6,77.4c0,2.2-1.5,3.6-3.5,3.6c-0.9,0-1.6-0.3-2.1-0.9v3.3h-2v-9.6h2v0.8c0.5-0.6,1.3-0.9,2.2-0.9      C24.1,73.8,25.6,75.2,25.6,77.4z M23.5,77.4c0-1.2-0.8-2-1.8-2s-1.8,0.7-1.8,2c0,1.2,0.8,2,1.8,2C22.8,79.4,23.5,78.6,23.5,77.4      z"
   id="path1284" />
				<path
   class="st0"
   d="M32.4,78.7l1.1,1.2c-0.7,0.7-1.6,1.1-2.9,1.1c-2.4,0-4-1.5-4-3.6s1.6-3.6,3.8-3.6c2,0,3.6,1.3,3.6,3.6      l-5.2,1c0.3,0.7,1,1,1.9,1C31.4,79.4,31.9,79.2,32.4,78.7z M28.6,77.2l3.4-0.7c-0.2-0.7-0.8-1.2-1.7-1.2      C29.3,75.3,28.6,76,28.6,77.2z"
   id="path1286" />
				<path
   class="st0"
   d="M39.8,73.8v1.9c-0.2,0-0.3,0-0.5,0c-1.1,0-1.9,0.6-1.9,2V81h-2v-7h2v0.9C37.8,74.1,38.7,73.8,39.8,73.8z"
   id="path1288" />
				<path
   class="st0"
   d="M44.1,71.8h2.1v7.4h4.6v1.7h-6.7C44.1,80.9,44.1,71.8,44.1,71.8z"
   id="path1290" />
				<path
   class="st0"
   d="M57.3,78.7l1.1,1.2c-0.7,0.7-1.6,1.1-2.9,1.1c-2.4,0-4-1.5-4-3.6s1.6-3.6,3.8-3.6c2,0,3.6,1.3,3.6,3.6      l-5.2,1c0.3,0.7,1,1,1.9,1C56.2,79.4,56.8,79.2,57.3,78.7z M53.4,77.2l3.4-0.7c-0.2-0.7-0.8-1.2-1.7-1.2S53.5,76,53.4,77.2z"
   id="path1292" />
				<path
   class="st0"
   d="M67.4,73.9v7h-2v-0.8c-0.5,0.6-1.3,0.9-2.2,0.9c-2,0-3.5-1.4-3.5-3.6s1.5-3.6,3.5-3.6      c0.9,0,1.6,0.3,2.1,0.9V74h2.1V73.9z M65.4,77.4c0-1.2-0.8-2-1.8-2c-1,0-1.8,0.7-1.8,2c0,1.2,0.8,2,1.8,2      C64.6,79.4,65.4,78.6,65.4,77.4z"
   id="path1294" />
				<path
   class="st0"
   d="M76.5,73.9v5.9c0,2.6-1.4,3.8-4,3.8c-1.3,0-2.6-0.3-3.5-1l0.8-1.5c0.6,0.5,1.6,0.8,2.5,0.8      c1.4,0,2.1-0.7,2.1-1.9v-0.3c-0.5,0.6-1.3,0.9-2.2,0.9c-2,0-3.5-1.3-3.5-3.4s1.6-3.4,3.5-3.4c1,0,1.8,0.3,2.3,1v-0.9H76.5z       M74.5,77.2c0-1-0.8-1.7-1.8-1.7c-1.1,0-1.9,0.7-1.9,1.7s0.8,1.7,1.9,1.7C73.7,78.9,74.5,78.2,74.5,77.2z"
   id="path1296" />
				<path
   class="st0"
   d="M85.4,73.9v7h-1.9v-0.8C83,80.7,82.2,81,81.3,81c-1.8,0-3-1-3-3.2v-4h2v3.7c0,1.2,0.5,1.7,1.4,1.7      s1.6-0.6,1.6-1.9v-3.5h2.1V73.9z"
   id="path1298" />
				<path
   class="st0"
   d="M92.6,78.7l1.1,1.2C93,80.6,92.1,81,90.8,81c-2.4,0-4-1.5-4-3.6s1.6-3.6,3.8-3.6c2,0,3.6,1.3,3.6,3.6      l-5.2,1c0.3,0.7,1,1,1.9,1C91.6,79.4,92.1,79.2,92.6,78.7z M88.8,77.2l3.4-0.7c-0.2-0.7-0.8-1.2-1.7-1.2      C89.5,75.3,88.8,76,88.8,77.2z"
   id="path1300" />
			</g>
		</g>
		<path
   class="st0"
   d="M44.2,62.8c0,0.7,0.4,1.4,1.3,1.8l1.2,0.7c0.4,0.2,0.8,0.6,0.8,1.1c0,0.6-0.5,1.1-1.2,1.1s-1.4-0.6-1.8-1.5    l-0.1-0.2L44,66l0.2,1.6c0.5,0.5,1.4,0.8,2.1,0.8c1.6,0,2.4-1.2,2.4-2.3c0-0.8-0.4-1.5-1.3-1.9l-1.2-0.7c-0.5-0.3-0.8-0.5-0.8-1    s0.5-1,1.1-1c0.7,0,1.1,0.6,1.4,1.1l0.1,0.2l0.3-0.1l-0.1-1.5c-0.5-0.3-1.1-0.5-1.8-0.5C45,60.8,44.2,61.8,44.2,62.8z M5.8,64.6    c0,2.6,2.1,3.8,4,3.8c1,0,1.9-0.2,2.7-0.8l0.1-1.7l-0.3-0.1V66c-0.6,1-1.4,1.6-2.3,1.6c-1.3,0-2.6-1.1-2.6-3.1c0-1.5,0.9-3,2.6-3    c0.9,0,1.7,0.6,2.2,1.6l0.1,0.1l0.3-0.1l-0.1-1.7c-0.9-0.4-1.8-0.7-2.7-0.7C7.2,60.8,5.8,62.7,5.8,64.6z M55.7,60.9v0.4    c0.2,0.1,0.3,0.3,0.3,0.6v6.5h1.4V61L55.7,60.9L55.7,60.9z M53.5,60.9v0.4c0.2,0.1,0.3,0.3,0.3,0.6v4c0,1-0.6,1.7-1.4,1.7    c-1,0-1.6-0.7-1.6-1.9v-4.8h-1.7v0.4c0.2,0.1,0.3,0.3,0.3,0.6v3.8c0,1.7,1,2.8,2.7,2.8c1.6,0,2.7-1,2.7-2.6V61L53.5,60.9    L53.5,60.9z M34.9,60.9v1.5h0.4v-0.1c0.1-0.4,0.4-0.5,0.7-0.5h1.1v6.6h1.4v-6.6h1.1c0.3,0,0.5,0.1,0.8,0.5v0.1h0.4v-1.5H34.9z     M32.4,60.9v0.4c0.2,0.1,0.3,0.3,0.3,0.6v6.5h1.4V61L32.4,60.9L32.4,60.9z M25.2,60.9v0.4c0.2,0.1,0.3,0.3,0.3,0.6v6.5h2.3    c2.8,0,4.3-1.9,4.3-3.8c0-1.8-1.3-3.6-4.3-3.6L25.2,60.9L25.2,60.9z M27.3,61.7c2.6,0,3.2,1.5,3.2,2.8c0,1.8-1.1,2.9-3,2.9    c-0.2,0-0.4,0-0.6-0.1v-5.6C27,61.8,27.1,61.7,27.3,61.7z M19.9,60.9v0.4c0.2,0.1,0.3,0.3,0.3,0.6v6.5h4.2l0.3-1.5l-0.4-0.1    l-0.1,0.1c-0.2,0.4-0.4,0.6-1.6,0.6c-0.4,0-0.8,0-1.1-0.1v-2.7h2v-0.9h-2v-2H23c0.4,0,0.6,0.2,0.8,0.5l0.1,0.1h0.4v-1.5H19.9z     M13.6,68.3H15V65h0.3c0.4,0,0.6,0.2,0.9,0.8l0.9,1.6c0.3,0.5,0.9,0.8,1.7,0.8h0.7l0.1-0.4c-0.5-0.2-0.9-0.4-1.1-0.7l-1-1.8    c-0.1-0.2-0.3-0.5-0.6-0.6c1.1-0.4,1.5-1.2,1.5-1.9c0-1.2-1-1.9-2.7-1.9h-2.4v0.4c0.2,0.1,0.3,0.3,0.3,0.6    C13.6,61.9,13.6,68.3,13.6,68.3z M15.6,61.8c0.6,0,1.4,0.2,1.4,1.1c0,0.8-0.5,1.3-1.4,1.3H15v-2.4C15.2,61.8,15.4,61.8,15.6,61.8z     M58.5,62.8c0,0.7,0.4,1.4,1.3,1.8l1.2,0.7c0.4,0.2,0.8,0.6,0.8,1.1c0,0.6-0.5,1.1-1.2,1.1s-1.4-0.6-1.8-1.5l-0.1-0.2L58.4,66    l0.2,1.6c0.5,0.5,1.4,0.8,2.1,0.8c1.6,0,2.4-1.2,2.4-2.3c0-0.8-0.4-1.5-1.3-1.9l-1.2-0.7c-0.5-0.3-0.8-0.5-0.8-1s0.5-1,1.1-1    c0.7,0,1.1,0.6,1.4,1.1l0.1,0.2l0.3-0.1l-0.1-1.5c-0.5-0.3-1.1-0.5-1.8-0.5C59.3,60.8,58.5,61.8,58.5,62.8z M63.7,62.8    c0,0.7,0.4,1.4,1.3,1.8l1.2,0.7c0.4,0.2,0.8,0.6,0.8,1.1c0,0.6-0.5,1.1-1.2,1.1S64.4,66.9,64,66v-0.1L63.6,66l0.2,1.6    c0.5,0.5,1.4,0.8,2.1,0.8c1.6,0,2.4-1.2,2.4-2.3c0-0.8-0.4-1.5-1.3-1.9l-1.2-0.7c-0.5-0.3-0.8-0.5-0.8-1s0.5-1,1.1-1    c0.7,0,1.1,0.6,1.4,1.1l0.1,0.2l0.3-0.1l-0.1-1.5c-0.5-0.3-1.1-0.5-1.8-0.5C64.5,60.8,63.7,61.8,63.7,62.8z M68.9,60.9v0.4    c0.2,0.1,0.3,0.3,0.3,0.6v6.5h4.2l0.3-1.5l-0.4-0.1l-0.1,0.1c-0.2,0.4-0.4,0.6-1.6,0.6c-0.4,0-0.8,0-1.1-0.1v-2.7h2v-0.9h-2v-2H72    c0.4,0,0.6,0.2,0.8,0.5l0.1,0.1h0.4v-1.5H68.9z M89.8,68.7c0.2,0.1,0.3,0.1,0.3,0.1c0.1,0,0.1,0,0.1-0.1v-0.1    c-0.7-0.8-1.7-1.7-2.8-2.7c-0.8-0.1-1.8-0.2-2.6-0.2c-0.5,0-0.9,0-1.2,0.1c-0.2,0-0.2,0-0.2-0.2c0-1.1-0.1-2-0.3-3    c1.4,1.1,2.7,2,4.2,3.4c1.5,0.3,2.1,0.4,3.2,0.7c0.2,0.1,0.3,0.1,0.3,0.1c0.1,0,0.1,0,0.1-0.1v-0.1c-3.1-4-6.2-6.5-9.7-9    c-0.1,0-0.1-0.1-0.1-0.1c-0.1,0-0.1,0-0.1,0.1v0.1c1,1.3,1.7,2.9,2.1,4.8c-2.9-2-5.4-3.5-8-4.7H75c-0.1,0-0.1,0.1-0.1,0.1V58    c2.3,2.1,4.3,5.9,5.2,10.1c0,0.1,0.1,0.2,0.2,0.2c0.7-0.1,1.9-0.3,3.5-0.3C85.5,67.9,87.5,68.1,89.8,68.7z"
   id="path1306" />
	</g>
</g><g
   data-name="Gruppe 13246"
   id="g52"
   transform="matrix(1.2812055,0,0,1.2812055,19.231985,0.20500847)"><path
     data-name="Pfad 16326"
     d="M 37.926,4.29 C 35.513,1.559 14.961,-1.067 12.177,0.441 9.393,1.949 -0.742,22.241 0.045,25.157 c 0.787,2.916 16.567,16.118 19.385,16.8 2.818,0.682 22.556,-9.532 23.927,-11.5 1.371,-1.968 -3.016,-23.43 -5.43,-26.161"
     fill="#506271"
     id="path44"
     style="fill:#003074;fill-opacity:1" /><g
     data-name="Gruppe 13245"
     fill="#ffffff"
     id="g50"><path
       data-name="Pfad 16327"
       d="m 37.468,10.467 a 1.75,1.75 0 1 0 1.75,1.751 1.752,1.752 0 0 0 -1.75,-1.751 z"
       id="path46" /><path
       data-name="Pfad 16328"
       d="m 34.577,13.218 a 4.036,4.036 0 0 0 -1.652,0.432 9.85,9.85 0 0 0 -0.361,0.152 l -0.053,0.023 a 5.289,5.289 0 0 1 -1.225,0.417 c -3.907,0.62 -4.46,1.167 -4.9,1.607 a 1.533,1.533 0 0 1 -0.755,0.46 c -0.355,0.108 -0.748,0.193 -1.165,0.282 a 10.768,10.768 0 0 0 -2.93,0.953 4.567,4.567 0 0 1 -0.853,0.3 8.548,8.548 0 0 0 -0.607,0.189 l -0.276,0.1 a 2.859,2.859 0 0 1 -3,-0.217 3.61,3.61 0 0 0 -1.083,-0.244 3.233,3.233 0 0 1 -0.58,-0.1 C 15.126,17.566 15.12,17.559 15.126,17.554 a 1.092,1.092 0 0 1 0.166,-0.064 0.575,0.575 0 0 0 0.393,-0.268 0.333,0.333 0 0 0 -0.019,-0.284 1.456,1.456 0 0 1 -0.139,-0.647 0.532,0.532 0 0 0 0.252,-0.285 0.263,0.263 0 0 0 -0.042,-0.221 2.644,2.644 0 0 0 -0.238,-0.277 0.833,0.833 0 0 1 -0.19,-0.246 c 0,-0.012 0,-0.026 0.009,-0.068 a 0.454,0.454 0 0 0 0.009,-0.223 1.343,1.343 0 0 0 -0.143,-0.309 0.956,0.956 0 0 1 -0.12,-0.269 c -0.019,-0.358 -0.433,-0.68 -1.056,-0.818 a 2.035,2.035 0 0 0 -2.305,0.878 2.25,2.25 0 0 0 0.359,2.572 l 0.041,0.057 c 0.4,0.565 0.435,0.9 0.126,1.172 a 4.465,4.465 0 0 0 -1.07,1.292 c -0.36,0.637 -0.7,1.411 -1,2.1 a 11.732,11.732 0 0 1 -0.816,1.678 4.409,4.409 0 0 0 -0.479,1.147 16.33,16.33 0 0 1 -0.109,0.333 9.187,9.187 0 0 0 -0.287,1.308 4.6,4.6 0 0 1 -0.363,1.393 1.859,1.859 0 0 1 -1.181,0.5 1.313,1.313 0 0 0 -0.643,0.324 l -0.033,0.023 c -0.063,0.044 -0.129,0.091 -0.2,0.138 a 1.956,1.956 0 0 1 -0.214,0.118 1.3,1.3 0 0 0 -0.318,0.2 0.362,0.362 0 0 0 -0.107,0.25 0.255,0.255 0 0 0 0.05,0.328 0.362,0.362 0 0 0 0.323,0.058 0.258,0.258 0 0 0 0.252,0.193 1.034,1.034 0 0 0 0.384,-0.121 2.884,2.884 0 0 1 0.522,-0.194 c 0.153,-0.037 0.317,-0.061 0.476,-0.085 a 2.129,2.129 0 0 0 1.158,-0.406 2.717,2.717 0 0 0 0.517,-0.733 c 0.051,-0.092 0.1,-0.179 0.148,-0.258 a 9.667,9.667 0 0 0 1.442,-3.329 1.854,1.854 0 0 1 0.7,-1.026 c 0.151,-0.146 0.337,-0.328 0.54,-0.55 a 6.582,6.582 0 0 0 0.495,-0.638 c 0.23,-0.327 0.412,-0.584 0.625,-0.592 a 6.439,6.439 0 0 1 0.954,0.217 19.393,19.393 0 0 0 3.988,0.721 3.317,3.317 0 0 1 1.667,0.573 c 0.182,0.106 0.371,0.215 0.585,0.319 a 18.638,18.638 0 0 0 3.479,1.092 5.121,5.121 0 0 0 0.976,0 3.317,3.317 0 0 1 0.673,0 c 0.033,0.016 0.067,0.036 0.111,0.063 a 1.908,1.908 0 0 0 0.374,0.18 2.4,2.4 0 0 0 1.332,-0.047 h 0.013 a 2.543,2.543 0 0 1 0.848,-0.1 2.478,2.478 0 0 1 0.489,0.2 c 0.13,0.063 0.265,0.128 0.379,0.172 a 2.086,2.086 0 0 0 1.6,0.053 0.734,0.734 0 0 0 0.386,-0.484 0.614,0.614 0 0 0 -0.1,-0.51 c -0.359,-0.522 -1.468,-0.693 -1.687,-0.721 a 5.174,5.174 0 0 1 -0.671,-0.147 h -0.013 a 3.883,3.883 0 0 0 -0.565,-0.12 0.642,0.642 0 0 0 -0.268,0.038 0.536,0.536 0 0 1 -0.381,0 0.976,0.976 0 0 1 -0.226,-0.131 1.821,1.821 0 0 0 -0.5,-0.263 1.5,1.5 0 0 1 -0.492,-0.238 l -0.074,-0.05 a 3.843,3.843 0 0 0 -1.2,-0.538 l -0.02,-0.006 a 1.275,1.275 0 0 1 -0.2,-0.066 c -0.791,-0.424 -1.055,-0.73 -1.053,-0.8 0.007,-0.431 0.163,-0.548 0.642,-0.8 a 12.247,12.247 0 0 0 1.96,-1.547 7.123,7.123 0 0 1 1.347,-1.066 3.508,3.508 0 0 0 1.764,-0.8 6.588,6.588 0 0 1 1.251,-0.846 c 1.017,-0.561 1.109,-0.565 1.2,-0.568 a 0.709,0.709 0 0 0 0.122,-0.012 h 0.007 a 0.3,0.3 0 0 0 0.154,0.077 0.568,0.568 0 0 0 0.21,0 h 0.013 a 0.585,0.585 0 0 1 0.067,-0.007 0.141,0.141 0 0 1 0.041,0.015 0.36,0.36 0 0 0 0.261,0.038 0.474,0.474 0 0 0 0.211,-0.159 l 0.049,-0.052 0.042,-0.006 a 0.425,0.425 0 0 0 0.221,-0.073 0.31,0.31 0 0 0 0.116,-0.225 c 0,-0.034 0.006,-0.036 0.01,-0.041 0.091,-0.109 0.335,-0.126 0.554,-0.139 h 0.01 a 0.347,0.347 0 0 1 0.043,0.015 0.366,0.366 0 0 0 0.28,0.032 0.325,0.325 0 0 0 0.153,-0.13 l 0.016,-0.022 h 0.036 a 0.433,0.433 0 0 0 0.118,-0.019 0.309,0.309 0 0 0 0.17,-0.2 l 0.011,-0.028 0.049,-0.02 a 0.324,0.324 0 0 0 0.25,-0.264 0.177,0.177 0 0 1 0.054,-0.132 0.354,0.354 0 0 0 0.072,-0.1 0.786,0.786 0 0 0 0.04,-0.305 v -0.014 -0.158 a 0.239,0.239 0 0 0 -0.072,-0.179 0.646,0.646 0 0 0 -0.34,-0.159 z m 0.205,0.736 z"
       id="path48" /></g></g>
</svg>
